/* XPM */
static char *result[] = {
/* columns rows colors chars-per-pixel */
"80 80 7 1 ",
"  c #2F2F2E",
". c #684228",
"X c #7C4E2E",
"o c #8B5936",
"O c #99643E",
"+ c #B97F56",
"@ c None",
/* pixels */
"@@@@@@@@@@@@@@@@@@@@@@@@@@@@@@@@@@@@@@@@@@@@@@@@@@@@@@@@@@@@@@@@@@@@@@@@@@@@@@@@",
"@@@@@@@@@@@@@@@@@@@@@@@@@@@@@@@@@@@@@@@@@@@@@@@@@@@@@@@@@@@@@@@@@@@@@@@@@@@@@@@@",
"@@@@@@@@@@@@@@@@@@@@@@@@@@@@@@@@@@@@@@@@@@@@@@@@@@@@@@@@@@@@@@@@@@@@@@@@@@@@@@@@",
"@@@@@@@@@@@@@@@@@@@@@@@@@@@@@@@@@@@@@@@@@@@@@@@@@@@@@@@@@@@@@@@@@@@@@@@@@@@@@@@@",
"@@@@@@@@@@@@@@@@@@@@@@@@@@@@@@@@@@@@@@@@@@@@@@@@@@@@@@@@@@@@@@@@@@@@@@@@@@@@@@@@",
"@@@@@@@@@@@@@@@@@@@@@@@@@@@@@@@@@@@@@@@@@@@@@@@@@@@@@@@@@@@@@@@@@@@@@@@@@@@@@@@@",
"@@@@@@@@@@@@@@@@@@@@@@@@@@@@@@@@@@@@@@@@@@@@@@@@@@@@@@@@@@@@@@@@@@@@@@@@@@@@@@@@",
"@@@@@@@@@@@@@@@@@@@@@@@@@@@@@@@@@@@@@@@@@@@@@@@@@@@@@@@@@@@@@@@@@@@@@@@@@@@@@@@@",
"@@@@@@@@@@@@@@@@@@@@@@@@@@@@@@@@@@@@@@@@@@@@@@@@@@@@@@@@@@@@@@@@@@@@@@@@@@@@@@@@",
"@@@@@@@@@@@@@@@@@@@@@@@@@@@@@@@@@@@@@@@@@@@@@@@@@@@@@@@@@@@@@@@@@@@@@@@@@@@@@@@@",
"@@@@@@@@@@@@@@@@@@@@@@@@@@@@@@@@@@@@@@@@@@@@@@@@@@@@@@@@@@@@@@@@@@@@@@@@@@@@@@@@",
"@@@@@@@@@@@@@@@@@@@@@@@@@@@@@@@@@@@@@@@@@@@@@@@@@@@@@@@@@@@@@@@@@@@@@@@@@@@@@@@@",
"@@@@@@@@@@@@@@@@@@@@@@@@@@@@@@@@@@@@@@@@@@@@@@@@@@@@@@@@@@@@@@@@@@@@@@@@@@@@@@@@",
"@@@@@@@@@@@@@@@@@@@@@@@@@@@@@@@@@@@@@@@@@@@@@@@@@@@@@@@@@@@@@@@@@@@@@@@@@@@@@@@@",
"@@@@@@@@@@                          @@@                          @@@@@@@@@@@@@@@",
"@@@@@@@@@@                          @@@                          @@@@@@@@@@@@@@@",
"@@@@@@    ++++++++++++++++++++++++++   ++++++++++++++++++++++++++     @@@@@@@@@@",
"@@@@  ++++++++++++++++++++++++++++++X..+++++++++++++++++++++++++++++++  @@@@@@@@",
"@@@@  ++++++++++++++++++++++++++++++X..+++++++++++++++++++++++++++++++  @@@@@@@@",
"@@@@++++++OOOOOOOOOOOOOOOOOOOOOOOOOOX..OOOOOOOOOOOOOOOOOOOOOOOOOO+++++++@@@@@@@@",
"@@@@++OOOOOOOOOOOOOOOOOOOOOOOOOOOOOOX..OOOOOOOOOOOOOOOOOOOOOOOOOOOOOOO++@@@@@@@@",
"@@@@++OOOOOOOOOOOOOOOOOOOOOOOOOOOOOOX..OOOOOOOOOOOOOOOOOOOOOOOOOOOOOOO++@@@@@@@@",
"@@@@OOOOOOooXooooXooooXoooooooooXOOOX..OOOXXooooXXoooXXooooXXoXXXOOOOOOO@@@@@@@@",
"@@@@OOOOOOooXooooXooooXoooooooooXOOOX..OOOXXooooXXoooXXooooXXoXXXOOOOOOO@@@@@@@@",
"@@@@OOOOooooXooooXoooXXoooooooooXOOOX..OOOXXooooXoooXXXooooXXoXXXXXoOOOO@@@@@@@@",
"@@@@OOXXooooXooooXoooXXooooooXXoXOOOX..OOOXXooXXXoooXXXoooXXXooXXXXoooOO@@@@@@@@",
"@@@@OOXXooooXooooXoooXXooooooXXoXOOOX..OOOXXooXXXoooXXXoooXXXooXXXXoooOO@@@@@@@@",
"@@@@OOXXooooXoXXXXoooXXoXXoooooXXOOOX..OOOXXooXXXoooXXXooXoXXooooXXoooOO@@@@@@@@",
"@@@@OOXXooooXoXXXXoXXXXoXXoooooXXOOOX..OOOXXoXXXXoooXXXooXoXXooooXXoXXOO@@@@@@@@",
"@@@@OOXXooooXoXXXXoXXXXoXXoooooXXOOOX..OOOXXoXXXXoooXXXooXoXXooooXXoXXOO@@@@@@@@",
"@@@@OOXXXXXXXXXXXXXXXXXXXXXXXXXXXOOOX..OOOXXXXXXXXXXXXXXXXXXXXXXXXXXXXOO@@@@@@@@",
"@@@@OO+++++++++++++++++++++++++++OOOX..OOO++++++++++++++++++++++++++++OO@@@@@@@@",
"@@@@OO+++++++++++++++++++++++++++OOOX..OOO++++++++++++++++++++++++++++OO@@@@@@@@",
"@@@@OO+++++++++++++++++++++++++++OOOX..OOO++++++++++++++++++++++++++++OO@@@@@@@@",
"@@@@OOOOOOOOOOOOOOOOOOOOOOOOOOOOOOOOX..OOOOOOOOOOOOOOOOOOOOOOOOOOOOOOOOO@@@@@@@@",
"@@@@OOXXXXooXooooXoXXXXooooooooooOOOX..OOOooooooXoXXXXXooooXXooooXXoXXOO@@@@@@@@",
"@@@@OOXXXoooXooooXoXXoXoXXooooo++OOOX..OOO+++oooXoooXXXooooXXoXooXXoXXOO@@@@@@@@",
"@@@@OOXXXoooXooooXoXXoXoXXooooo++OOOX..OOO+++oooXoooXXXooooXXoXooXXoXXOO@@@@@@@@",
"@@@@OOXXXoooXXoooXoXXoXooooooooOOOOOX..OOOOOOoooXooooXXooooXXoXooXXoooOO@@@@@@@@",
"@@@@OOXXooooXXXXXXooooXoXXoooooO...OX..O....OXooXooooXXoooXXXooooXXoXXOO@@@@@@@@",
"@@@@OOXXooooXXXXXXooooXoXXoooooO...OX..O....OXooXooooXXoooXXXooooXXoXXOO@@@@@@@@",
"@@@@OOXXooooXXXXXXooooXoXXXooXXO...OX..O....OXooXooooXXoooXXXoXooXXoXXOO@@@@@@@@",
"@@@@OOXXooooXXXXXXooooXoXXXooXXO...OX..O....OXooXooooXXoooXXXoXooXXoXXOO@@@@@@@@",
"@@@@OOXXXXXXXXXXXXXXXXXXXXXXXXXO.OOOX..OOO..OXXXXXXXXXXXXXXXXXXXXXXXXXOO@@@@@@@@",
"@@@@OOXXXXXXXXXXXXXXXXXXXXXXXXXO.OOOX..OOO..OXXXXXXXXXXXXXXXXXXXXXXXXXOO@@@@@@@@",
"@@@@OO+++++++++++++++++++++++++OOOOOX..OOOOOO+++++++++++++++++++++++++OO@@@@@@@@",
"@@@@OOOOOOOOOOOOOOOOOOOOOOOOOOOOOOOOX..OOOOOOOOOOOOOOOOOOOOOOOOOOOOOOOOO@@@@@@@@",
"@@@@OOOOOOOOOOOOOOOOOOOOOOOOOOOOOOOOX..OOOOOOOOOOOOOOOOOOOOOOOOOOOOOOOOO@@@@@@@@",
"@@@@OOXXoXooXoXXXXoXXoXoooooooooXOOOX..OOOXXXoXXXooooXXoooXXXooooXXoXXOO@@@@@@@@",
"@@@@OOXXooooXooooXooooXoooXooXXoXOOOX..OOOooXoXXXoXXoXXoooXXXooXXXXoXXOO@@@@@@@@",
"@@@@OOXXXoooXXoooXoooXXoXXoooXXooOOOX..OOOXXooooXoXXoXXooooXXoXooXXoXXOO@@@@@@@@",
"@@@@OOXXXoooXXoooXoooXXoXXoooXXooOOOX..OOOXXooooXoXXoXXooooXXoXooXXoXXOO@@@@@@@@",
"@@@@OOXXXoooXXoooXoooXXoXXoooXXooOOOX..OOOXXooooXoXXoXXooooXXoXooXXoXXOO@@@@@@@@",
"@@@@OOXXXoXXXXoooXoooXXoXXoooXXXoOOOX..OOOXXooooXoXXoXXooXoXXoXooXXoooOO@@@@@@@@",
"@@@@OOXXXXXXXXXXXXXXXXXXXXXXXXXXXOOOX..OOOXXXXXXXXXXXXXXXXXXXXXXXXXXXXOO@@@@@@@@",
"@@@@OOXXXXXXXXXXXXXXXXXXXXXXXXXXXOOOX..OOOXXXXXXXXXXXXXXXXXXXXXXXXXXXXOO@@@@@@@@",
"@@@@OO+++++++++++++++++++++++++++OOOX..OOO++++++++++++++++++++++++++++OO@@@@@@@@",
"@@@@OOOOOOOOOOOOOOOOOOOOOOOOOOOOOOOOX..OOOOOOOOOOOOOOOOOOOOOOOOOOOOOOOOO@@@@@@@@",
"@@@@OOOOOOOOOOOOOOOOOOOOOOOOOOOOOOOOX..OOOOOOOOOOOOOOOOOOOOOOOOOOOOOOOOO@@@@@@@@",
"@@@@                                                                    @@@@@@@@",
"@@@@@@@@@@@@@@@@@@@@@@@@@@@@@@@@@@@@@@@@@@@@@@@@@@@@@@@@@@@@@@@@@@@@@@@@@@@@@@@@",
"@@@@@@@@@@@@@@@@@@@@@@@@@@@@@@@@@@@@@@@@@@@@@@@@@@@@@@@@@@@@@@@@@@@@@@@@@@@@@@@@",
"@@@@@@@@@@@@@@@@@@@@@@@@@@@@@@@@@@@@@@@@@@@@@@@@@@@@@@@@@@@@@@@@@@@@@@@@@@@@@@@@",
"@@@@@@@@@@@@@@@@@@@@@@@@@@@@@@@@@@@@@@@@@@@@@@@@@@@@@@@@@@@@@@@@@@@@@@@@@@@@@@@@",
"@@@@@@@@@@@@@@@@@@@@@@@@@@@@@@@@@@@@@@@@@@@@@@@@@@@@@@@@@@@@@@@@@@@@@@@@@@@@@@@@",
"@@@@@@@@@@@@@@@@@@@@@@@@@@@@@@@@@@@@@@@@@@@@@@@@@@@@@@@@@@@@@@@@@@@@@@@@@@@@@@@@",
"@@@@@@@@@@@@@@@@@@@@@@@@@@@@@@@@@@@@@@@@@@@@@@@@@@@@@@@@@@@@@@@@@@@@@@@@@@@@@@@@",
"@@@@@@@@@@@@@@@@@@@@@@@@@@@@@@@@@@@@@@@@@@@@@@@@@@@@@@@@@@@@@@@@@@@@@@@@@@@@@@@@",
"@@@@@@@@@@@@@@@@@@@@@@@@@@@@@@@@@@@@@@@@@@@@@@@@@@@@@@@@@@@@@@@@@@@@@@@@@@@@@@@@",
"@@@@@@@@@@@@@@@@@@@@@@@@@@@@@@@@@@@@@@@@@@@@@@@@@@@@@@@@@@@@@@@@@@@@@@@@@@@@@@@@",
"@@@@@@@@@@@@@@@@@@@@@@@@@@@@@@@@@@@@@@@@@@@@@@@@@@@@@@@@@@@@@@@@@@@@@@@@@@@@@@@@",
"@@@@@@@@@@@@@@@@@@@@@@@@@@@@@@@@@@@@@@@@@@@@@@@@@@@@@@@@@@@@@@@@@@@@@@@@@@@@@@@@",
"@@@@@@@@@@@@@@@@@@@@@@@@@@@@@@@@@@@@@@@@@@@@@@@@@@@@@@@@@@@@@@@@@@@@@@@@@@@@@@@@",
"@@@@@@@@@@@@@@@@@@@@@@@@@@@@@@@@@@@@@@@@@@@@@@@@@@@@@@@@@@@@@@@@@@@@@@@@@@@@@@@@",
"@@@@@@@@@@@@@@@@@@@@@@@@@@@@@@@@@@@@@@@@@@@@@@@@@@@@@@@@@@@@@@@@@@@@@@@@@@@@@@@@",
"@@@@@@@@@@@@@@@@@@@@@@@@@@@@@@@@@@@@@@@@@@@@@@@@@@@@@@@@@@@@@@@@@@@@@@@@@@@@@@@@",
"@@@@@@@@@@@@@@@@@@@@@@@@@@@@@@@@@@@@@@@@@@@@@@@@@@@@@@@@@@@@@@@@@@@@@@@@@@@@@@@@",
"@@@@@@@@@@@@@@@@@@@@@@@@@@@@@@@@@@@@@@@@@@@@@@@@@@@@@@@@@@@@@@@@@@@@@@@@@@@@@@@@",
"@@@@@@@@@@@@@@@@@@@@@@@@@@@@@@@@@@@@@@@@@@@@@@@@@@@@@@@@@@@@@@@@@@@@@@@@@@@@@@@@",
"@@@@@@@@@@@@@@@@@@@@@@@@@@@@@@@@@@@@@@@@@@@@@@@@@@@@@@@@@@@@@@@@@@@@@@@@@@@@@@@@"
};
