/* XPM */
static char *result[] = {
/* columns rows colors chars-per-pixel */
"80 80 4 1 ",
"  c #BF4830",
". c #FDAE35",
"X c #FFD943",
"o c None",
/* pixels */
"oooooooooooooooooooooooooooooooooooooooooooooooooooooooooooooooooooooooooooooooo",
"oooooooooooooooooooooooooooooooooooooooooooooooooooooooooooooooooooooooooooooooo",
"oooooooooooooooooooooooooooooooooooooooooooooooooooooooooooooooooooooooooooooooo",
"oooooooooooooooooooooooooooooooooooooooooooooooooooooooooooooooooooooooooooooooo",
"oooooooooooooooooooooooooooooooooooooooooooooooooooooooooooooooooooooooooooooooo",
"oooooooooooooooooooooooooooooooooooooooooooooooooooooooooooooooooooooooooooooooo",
"oooooooooooooooooooooooooooooooooooooooooooooooooooooooooooooooooooooooooooooooo",
"oooooooooooooooooooooooooooooooooooooooooooooooooooooooooooooooooooooooooooooooo",
"oooooooooooooooooooooooooooooooooooooooooooooooooooooooooooooooooooooooooooooooo",
"oooooooooooooooooooooooooooooooooooooooooooooooooooooooooooooooooooooooooooooooo",
"oooooooooooooooooooooooooooooooooooooooooooooooooooooooooooooooooooooooooooooooo",
"oooooooooooooooooooooooooooooooooooooooooooooooooooooooooooooooooooooooooooooooo",
"oooooooooooooooooooooooooooooooooooooooooooooooooooooooooooooooooooooooooooooooo",
"oooooooooooooooooooooooooooooooooooooooooooooooooooooooooooooooooooooooooooooooo",
"oooooooooooooooooooooooooooooooooooooooooooooooooooooooooooooooooooooooooooooooo",
"oooooooooooooooooooooooooooooooooooooooooooooooooooooooooooooooooooooooooooooooo",
"oooooooooooooooooooooooooooooooooooooooooooooooooooooooooooooooooooooooooooooooo",
"oooooooooooooooooooooooooooooooooooooooooooooooooooooooooooooooooooooooooooooooo",
"oooooooooooooooooooooooooooooooooooooooooooooooooooooooooooooooooooooooooooooooo",
"oooooooooooooooooooooooooooooooooooooooooooooooooooooooooooooooooooooooooooooooo",
"oooooooooooooooooooooooooooooooo.........   oooooooooooooooooooooooooooooooooooo",
"oooooooooooooooooooooooooooooo..  ..........   ooooooooooooooooooooooooooooooooo",
"oooooooooooooooooooooooooooooo..  ..........   ooooooooooooooooooooooooooooooooo",
"oooooooooooooooooooooooooooo.. ..............   oooooooooooooooooooooooooooooooo",
"ooooooooooooooooooooooooooo.  .............XX..  ooooooooooooooooooooooooooooooo",
"ooooooooooooooooooooooooooo.  .............XX..  ooooooooooooooooooooooooooooooo",
"oooooooooooooooooooooooooo. .............XXXXXX.   ooooooooooooooooooooooooooooo",
"oooooooooooooooooooooooooo. ....... ... XXXXX...   ooooooooooooooooooooooooooooo",
"oooooooooooooooooooooooooo. ....... ... XXXXX...   ooooooooooooooooooooooooooooo",
"oooooooooooooooooooooooooo. ....... ... XXXX....   ooooooooooooooooooooooooooooo",
"oooooooooooooooooooooooo.. .......       XX......   oooooooooooooooooooooooooooo",
"oooooooooooooooooooooooo.. .......       XX......   oooooooooooooooooooooooooooo",
"oooooooooooooooooooooooo.. .....   .XXXX   ......   oooooooooooooooooooooooooooo",
"oooooooooooooooooooooooo.. .....   XXXXX   ......   oooooooooooooooooooooooooooo",
"oooooooooooooooooooooooo.. .....   XXXXX   ......   oooooooooooooooooooooooooooo",
"oooooooooooooooooooooooo.. .....   XXXX..........   oooooooooooooooooooooooooooo",
"oooooooooooooooooooooooo.. .....    XX...........   oooooooooooooooooooooooooooo",
"oooooooooooooooooooooooo.. .....    XX...........   oooooooooooooooooooooooooooo",
"oooooooooooooooooooooooo.. ....XXXX     .........   oooooooooooooooooooooooooooo",
"oooooooooooooooooooooooo.. ...XXXXX....  ........   oooooooooooooooooooooooooooo",
"oooooooooooooooooooooooo.. .XXXXXX......   ......   oooooooooooooooooooooooooooo",
"oooooooooooooooooooooooo.. .XXXXXX......   ......   oooooooooooooooooooooooooooo",
"oooooooooooooooooooooooo.. .XXXX   .....   ......   oooooooooooooooooooooooooooo",
"oooooooooooooooooooooooo.. .XXX.   .....   ......   oooooooooooooooooooooooooooo",
"oooooooooooooooooooooooo.. .XXX.   .....   ......   oooooooooooooooooooooooooooo",
"oooooooooooooooooooooooooo. ......       .......   ooooooooooooooooooooooooooooo",
"oooooooooooooooooooooooooo. ....... ... ........   ooooooooooooooooooooooooooooo",
"oooooooooooooooooooooooooo. ....... ... ........   ooooooooooooooooooooooooooooo",
"oooooooooooooooooooooooooo. ....... ... ........   ooooooooooooooooooooooooooooo",
"ooooooooooooooooooooooooooo.  .................  ooooooooooooooooooooooooooooooo",
"ooooooooooooooooooooooooooo.  .................  ooooooooooooooooooooooooooooooo",
"oooooooooooooooooooooooooooo.. ..............   oooooooooooooooooooooooooooooooo",
"oooooooooooooooooooooooooooooo..  ..........   ooooooooooooooooooooooooooooooooo",
"oooooooooooooooooooooooooooooo..  ..........   ooooooooooooooooooooooooooooooooo",
"oooooooooooooooooooooooooooooooo.........   oooooooooooooooooooooooooooooooooooo",
"oooooooooooooooooooooooooooooooooooooooooooooooooooooooooooooooooooooooooooooooo",
"oooooooooooooooooooooooooooooooooooooooooooooooooooooooooooooooooooooooooooooooo",
"oooooooooooooooooooooooooooooooooooooooooooooooooooooooooooooooooooooooooooooooo",
"oooooooooooooooooooooooooooooooooooooooooooooooooooooooooooooooooooooooooooooooo",
"oooooooooooooooooooooooooooooooooooooooooooooooooooooooooooooooooooooooooooooooo",
"oooooooooooooooooooooooooooooooooooooooooooooooooooooooooooooooooooooooooooooooo",
"oooooooooooooooooooooooooooooooooooooooooooooooooooooooooooooooooooooooooooooooo",
"oooooooooooooooooooooooooooooooooooooooooooooooooooooooooooooooooooooooooooooooo",
"oooooooooooooooooooooooooooooooooooooooooooooooooooooooooooooooooooooooooooooooo",
"oooooooooooooooooooooooooooooooooooooooooooooooooooooooooooooooooooooooooooooooo",
"oooooooooooooooooooooooooooooooooooooooooooooooooooooooooooooooooooooooooooooooo",
"oooooooooooooooooooooooooooooooooooooooooooooooooooooooooooooooooooooooooooooooo",
"oooooooooooooooooooooooooooooooooooooooooooooooooooooooooooooooooooooooooooooooo",
"oooooooooooooooooooooooooooooooooooooooooooooooooooooooooooooooooooooooooooooooo",
"oooooooooooooooooooooooooooooooooooooooooooooooooooooooooooooooooooooooooooooooo",
"oooooooooooooooooooooooooooooooooooooooooooooooooooooooooooooooooooooooooooooooo",
"oooooooooooooooooooooooooooooooooooooooooooooooooooooooooooooooooooooooooooooooo",
"oooooooooooooooooooooooooooooooooooooooooooooooooooooooooooooooooooooooooooooooo",
"oooooooooooooooooooooooooooooooooooooooooooooooooooooooooooooooooooooooooooooooo",
"oooooooooooooooooooooooooooooooooooooooooooooooooooooooooooooooooooooooooooooooo",
"oooooooooooooooooooooooooooooooooooooooooooooooooooooooooooooooooooooooooooooooo",
"oooooooooooooooooooooooooooooooooooooooooooooooooooooooooooooooooooooooooooooooo",
"oooooooooooooooooooooooooooooooooooooooooooooooooooooooooooooooooooooooooooooooo",
"oooooooooooooooooooooooooooooooooooooooooooooooooooooooooooooooooooooooooooooooo",
"oooooooooooooooooooooooooooooooooooooooooooooooooooooooooooooooooooooooooooooooo"
};
