/* XPM */
static char *result[] = {
/* columns rows colors chars-per-pixel */
"80 80 6 1 ",
"  c #211F30",
". c #62677A",
"X c #858D99",
"o c #AFBBC3",
"O c #D8E1E4",
"+ c None",
/* pixels */
"++++++++++++++++++++++++++++++++++++++++++++++++++++++++++++++++++++++++++++++++",
"++++++++++++++++++++++++++++++++++++++++++++++++++++++++++++++++++++++++++++++++",
"++++++++++++++++++++++++++++++++++++++++++++++++++++++++++++++++++++++++++++++++",
"++++++++++++++++++++++++++++++++++++++++++++++++++++++++++++++++++++++++++++++++",
"++++++++++++++++++++++++++++++++++++++++++++++++++++++++++++++++++++++++++++++++",
"++++++++++++++++++++++++++++++++++++++++++++++++++++++++++++++++++++++++++++++++",
"++++++++++++++++++++++++++++++++++++++++++++++++++++++++++++++++++++++++++++++++",
"++++++++++++++++++++++++++++++++++++++++++++++++++++++++++++++++++++++++++++++++",
"++++++++++++++++++++++++++++++++++++++++++++++++++++++++++++++++++++++++++++++++",
"++++++++++++++++++++++++++++++++++++++++++++++++++++++++++++++++++++++++++++++++",
"++++++++++++++++++++++++++++++++++++++++++++++++++++++++++++++++++++++++++++++++",
"++++++++++++++++++++++++++++++++++++++++++++++++++++++++++++++++++++++++++++++++",
"+++++++++++++++++++++++++++++++++++++  +++++++++++++++++++++++++++++++++++++++++",
"+++++++++++++++++++++++++++++++++++++  +++++++++++++++++++++++++++++++++++++++++",
"+++++++++++++++++++++++++++++++++++++  +++++++++++++++++++++++++++++++++++++++++",
"++++++++++++++++++++++++++++++++++++ OO   ++++++++++++++++++++++++++++++++++++++",
"++++++++++++++++++++++++++++++++++  OooXXX +++++++++++++++++++++++++++++++++++++",
"++++++++++++++++++++++++++++++++++  OooXXX +++++++++++++++++++++++++++++++++++++",
"++++++++++++++++++++++++++++++++++  OooXXX +++++++++++++++++++++++++++++++++++++",
"++++++++++++++++++++++++++++++++  ooXXXXXXX  +++++++++++++++++++++++++++++++++++",
"+++++++++++++++++++++       ++++             ++++       ++++++++++++++++++++++++",
"+++++++++++++++++++++       ++++             ++++       ++++++++++++++++++++++++",
"+++++++++++++++++++++  OOOXX    oooooooXXXXXX    XXoOOO ++++++++++++++++++++++++",
"+++++++++++++++++++++  OOOXX    oooooooXXXXXX    XXoOOO ++++++++++++++++++++++++",
"+++++++++++++++++++++  ooo  ooooXXXXXXXXXXXXXXX..  Xooo ++++++++++++++++++++++++",
"+++++++++++++++++++++  ooo  ooooXXXXXXXXXXXXXXX..  Xooo ++++++++++++++++++++++++",
"+++++++++++++++++++++  XXXooXXXXXXXXXXXXXXXXXXXXX.. XXX ++++++++++++++++++++++++",
"+++++++++++++++++++++  XXXooXXXXXXXXXXXXXXXXXXXXX.. XXX ++++++++++++++++++++++++",
"+++++++++++++++++++++++   XXooooXXXXXXXXXXXXXXXXX...   +++++++++++++++++++++++++",
"+++++++++++++++++++++++   XXooooXXXXXXXXXXXXXXXXX...   +++++++++++++++++++++++++",
"+++++++++++++++++++++++   XXooooXXXXXXXXXXXXXXXXX...   +++++++++++++++++++++++++",
"+++++++++++++++++++++++   XXooooXXXXXXXXXXXXXXXXXXX.   +++++++++++++++++++++++++",
"++++++++++++++++++++   oooXXXXXXXXXXXXXXXXXXXXXXXXX....   ++++++++++++++++++++++",
"++++++++++++++++++++   oooXXXXXXXXXXXXXXXXXXXXXXXXX....   ++++++++++++++++++++++",
"++++++++++++++++++  o  XXXooXXXXXXXXXXXXXXXXXXXXXXX.... oo +++++++++++++++++++++",
"++++++++++++++++++  o  XXXooXXXXXXXXXXXXXXXXXXXXXXX.... oo +++++++++++++++++++++",
"++++++++++++++++++  o  XXXooXXXXXXXXXXXXXXXXXXXXXXX.... oo +++++++++++++++++++++",
"+++++++++++++++   OOX  XXXXXXXXXXXXXXXXXXXXXXXXXXXX.... XXO  +++++++++++++++++++",
"++++++++++++++ OOOooX  XXXXXXXXXXXXXXXXXXXXXXXX..XX.... XXoOO  +++++++++++++++++",
"+++++++++++++++   XXX  XXXXXXXXXXXXXXXXXXXXXXXXXXXX.... XXX  +++++++++++++++++++",
"+++++++++++++++   XXX  XXXXXXXXXXXXXXXXXXXXXXXXXXXX.... XXX  +++++++++++++++++++",
"+++++++++++++++   XXX  XXXXXXXXXXXXXXXXXXXXXXXXXXXX.... XXX  +++++++++++++++++++",
"+++++++++++++++   XXX  XXXXXXXXXXXXXXXXXXXXXXXXXXXX.... XXX  +++++++++++++++++++",
"++++++++++++++++++++   ...XXXXXXXXXXXXXXXXX....XX......   ++++++++++++++++++++++",
"++++++++++++++++++++   ...XXXXXXXXXXXXXXXXX....XX......   ++++++++++++++++++++++",
"++++++++++++++++++++   ...XXXXXXXXXXXXXXXXX....XX......   ++++++++++++++++++++++",
"++++++++++++++++++++   ...XXXXXXXXXXXXXXXXX....XX......   ++++++++++++++++++++++",
"+++++++++++++++++++++++   XXXXXXXXXXXXX...X....XX...   +++++++++++++++++++++++++",
"+++++++++++++++++++++++   ..XXXXXXXXXXXXXXXXXXX.....   +++++++++++++++++++++++++",
"+++++++++++++++++++++++   ..XXXXXXXXXXXXXXXXXXX.....   +++++++++++++++++++++++++",
"+++++++++++++++++++++  XXX......XXXXXXXXXX......... XXX ++++++++++++++++++++++++",
"+++++++++++++++++++++  ooo  .....................  Xooo ++++++++++++++++++++++++",
"+++++++++++++++++++++  ooo  .....................  Xooo ++++++++++++++++++++++++",
"+++++++++++++++++++++  ooo  .....................  Xooo ++++++++++++++++++++++++",
"+++++++++++++++++++++       ++++             ++++       ++++++++++++++++++++++++",
"+++++++++++++++++++++       ++++             ++++       ++++++++++++++++++++++++",
"+++++++++++++++++++++       ++++             ++++       ++++++++++++++++++++++++",
"+++++++++++++++++++++       ++++             ++++       ++++++++++++++++++++++++",
"++++++++++++++++++++++++++++++++  ooXXXXXXX  +++++++++++++++++++++++++++++++++++",
"++++++++++++++++++++++++++++++++  ooXXXXXXX  +++++++++++++++++++++++++++++++++++",
"++++++++++++++++++++++++++++++++++  OooXXX +++++++++++++++++++++++++++++++++++++",
"++++++++++++++++++++++++++++++++++++ OO   ++++++++++++++++++++++++++++++++++++++",
"++++++++++++++++++++++++++++++++++++ OO   ++++++++++++++++++++++++++++++++++++++",
"++++++++++++++++++++++++++++++++++++ OO   ++++++++++++++++++++++++++++++++++++++",
"+++++++++++++++++++++++++++++++++++++  +++++++++++++++++++++++++++++++++++++++++",
"+++++++++++++++++++++++++++++++++++++  +++++++++++++++++++++++++++++++++++++++++",
"++++++++++++++++++++++++++++++++++++++++++++++++++++++++++++++++++++++++++++++++",
"++++++++++++++++++++++++++++++++++++++++++++++++++++++++++++++++++++++++++++++++",
"++++++++++++++++++++++++++++++++++++++++++++++++++++++++++++++++++++++++++++++++",
"++++++++++++++++++++++++++++++++++++++++++++++++++++++++++++++++++++++++++++++++",
"++++++++++++++++++++++++++++++++++++++++++++++++++++++++++++++++++++++++++++++++",
"++++++++++++++++++++++++++++++++++++++++++++++++++++++++++++++++++++++++++++++++",
"++++++++++++++++++++++++++++++++++++++++++++++++++++++++++++++++++++++++++++++++",
"++++++++++++++++++++++++++++++++++++++++++++++++++++++++++++++++++++++++++++++++",
"++++++++++++++++++++++++++++++++++++++++++++++++++++++++++++++++++++++++++++++++",
"++++++++++++++++++++++++++++++++++++++++++++++++++++++++++++++++++++++++++++++++",
"++++++++++++++++++++++++++++++++++++++++++++++++++++++++++++++++++++++++++++++++",
"++++++++++++++++++++++++++++++++++++++++++++++++++++++++++++++++++++++++++++++++",
"++++++++++++++++++++++++++++++++++++++++++++++++++++++++++++++++++++++++++++++++",
"++++++++++++++++++++++++++++++++++++++++++++++++++++++++++++++++++++++++++++++++"
};
