/* XPM */
static char *result[] = {
/* columns rows colors chars-per-pixel */
"80 80 7 1 ",
"  c #2F2F2E",
". c #684228",
"X c #7C4E2E",
"o c #8B5936",
"O c #99643E",
"+ c #B97F56",
"@ c None",
/* pixels */
"@@@@@@@@@@@@@@@@@@@@@@@@@@@@@@@@@@@@@@@@@@@@@@@@@@@@@@@@@@@@@@@@@@@@@@@@@@@@@@@@",
"@@@@@@@@@@@@@@@@@@@@@@@@@@@@@@@@@@@@@@@@@@@@@@@@@@@@@@@@@@@@@@@@@@@@@@@@@@@@@@@@",
"@@@@@@@@@@@@@@@@@@@@@@@@@@@@@@@@@@@@@@@@@@@@@@@@@@@@@@@@@@@@@@@@@@@@@@@@@@@@@@@@",
"@@@@@@@@@@@@@@@@@@@@@@@@@@@@@@@@@@@@@@@@@@@@@@@@@@@@@@@@@@@@@@@@@@@@@@@@@@@@@@@@",
"@@@@@@@@@@@@@@@@@@@@@@@@@@@@@@@@@@@@@@@@@@@@@@@@@@@@@@@@@@@@@@@@@@@@@@@@@@@@@@@@",
"@@@@@@@@@@@@@@@@@@@@@@@@@@@@@@@@@@@@@@@@@@@@@@@@@@@@@@@@@@@@@@@@@@@@@@@@@@@@@@@@",
"@@@@@@@@@@@@@@@@@@@@@@@@@@@@@@@@@@@@@@@@@@@@@@@@@@@@@@@@@@@@@@@@@@@@@@@@@@@@@@@@",
"@@@@@@@@@@@@@@@@@@@@@@@@@@@@@@@@@@@@@@@@@@@@@@@@@@@@@@@@@@@@@@@@@@@@@@@@@@@@@@@@",
"@@@@@@@@@@@@@@@@@@@@@@@@@@@@@@@@@@@@@@@@@@@@@@@@@@@@@@@@@@@@@@@@@@@@@@@@@@@@@@@@",
"@@@@@@@@@@@@@@@@@@@@@@@@@@@@@@@@@@@@@@@@@@@@@@@@@@@@@@@@@@@@@@@@@@@@@@@@@@@@@@@@",
"@@@@@@@@@@@@@@@@@@@@@@@@@@@@       @@@@@        @@@@@@@@@@@@@@@@@@@@@@@@@@@@@@@@",
"@@@@@@@@@@@@@@@@@@@@@@@@@@@@       @@@@@        @@@@@@@@@@@@@@@@@@@@@@@@@@@@@@@@",
"@@@@@@@@@@@@@@@@@@@@@@@@    +++++++  @@ ++++++++    @@@@@@@@@@@@@@@@@@@@@@@@@@@@",
"@@@@@@@@@@@@@@@@@@@     ++++++OOOOO  @@ OOOO++++++++     @@@@@@@@@@@@@@@@@@@@@@@",
"@@@@@@@@@@@@@@@    +++++++++OOOOOOO  @@ OOOOOOOO+++++++++    @@@@@@@@@@@@@@@@@@@",
"@@@@@@@@@@@@@@@    +++++++++OOOOOOO  @@ OOOOOOOO+++++++++    @@@@@@@@@@@@@@@@@@@",
"@@@@@@@@@@@@@@@    +++++++++OOOOOOO  @@ OOOOOOOO+++++++++    @@@@@@@@@@@@@@@@@@@",
"@@@@@@@@@@@@@  +++++++++OOOOOOOOOOO  @@ OOOOOOOOOOOO+++++++++  @@@@@@@@@@@@@@@@@",
"@@@@@@@@@@   ++++++OOOOOOOOOoXXXOOO  @@ OOOXooooOOOOOOOOO++++++ @@@@@@@@@@@@@@@@",
"@@@@@@@@  +++++OOOOOOOOOoooooXXXOOO  @@ OOOXooooooooOOOOOOOOO+++    @@@@@@@@@@@@",
"@@@@@@@@  +++++OOOOOOOOOoooooXXXOOO  @@ OOOXooooooooOOOOOOOOO+++    @@@@@@@@@@@@",
"@@@@@@@ +++++OOOOOOoXXXooooooXXXOOO  @@ OOOXoooooooooXoooOOOOOO+++++ @@@@@@@@@@@",
"@@@@@  +++OOOOOooXoXXXXooooooXXXOOO  @@ OOOXXXXooooooXXXXoXooOOO+++++  @@@@@@@@@",
"@@@@@  +++OOOOOooXoXXXXooooooXXXOOO  @@ OOOXXXXooooooXXXXoXooOOO+++++  @@@@@@@@@",
"@@@@ +++OOOOOXoooXoXXXXooooooXXXOOO  @@ OOOXXXXooooooXXXXoXoooXOOOOO+++ @@@@@@@@",
"@@@@+++OOOoooXoooXoXXXXoooooXXXXOOO  @@ OOOXXXXXoooooXXXXoXoooXoOOOOO+++@@@@@@@@",
"@@@@+++OOOoooXoooXoXXXXoooooXXXXOOO  @@ OOOXXXXXoooooXXXXoXoooXoOOOOO+++@@@@@@@@",
"@@@@+OOOoooooXoXXXoXXXXoXXXX++++OOO  @@ OOO+++++XXXXoXXXXoXXXoXoooooOOO+@@@@@@@@",
"@@@@+OOOoooooXoXXXoXXXXoXXXX++++OOO  @@ OOO+++++XXXXoXXXXoXXXoXoooooOOO+@@@@@@@@",
"@@@@XOOOoooooXoXXXoXXXXX++++OOOOOOO  @@ OOOOOOOO++++XXXXXoXXXoXoooooOOOX@@@@@@@@",
"@@@@XOOXoooooXoXXXX+++++OOOOoXXXOOO  @@ OOOXooooOOOO+++++XXXXoXoooooXOOX@@@@@@@@",
"@@@@XOOXoooooXX++++OOOOOoooooXXXOOO  @@ OOOXooooooooOOOOO++++XXoooooXOOX@@@@@@@@",
"@@@@XOOXoooooXX++++OOOOOoooooXXXOOO  @@ OOOXooooooooOOOOO++++XXoooooXOOX@@@@@@@@",
"@@@@XOOXXXXXX++OOOOXXXXooooooXXXOOO  @@ OOOXoooooooooXXXXOOOO++XXXXXXOOX@@@@@@@@",
"@@@@XOOX+++++OOooXooXXXooooooXXX.OO  @@ OO.XoooooooooXooooXooOO+++++XOOX@@@@@@@@",
"@@@@XOOX+++++OOooXooXXXooooooXXX.OO  @@ OO.XoooooooooXooooXooOO+++++XOOX@@@@@@@@",
"@@@@XOO+OOOOOXoooXooXXXoooooXXXX.OO  @@ OO.XXXXXoooooXooooXoooXOOOOO+OOX@@@@@@@@",
"@@@@XOO+OOOOOXoooXooXXXoooooXXXX.OO  @@ OO.XXXXXoooooXooooXoooXOOOOO+OOX@@@@@@@@",
"@@@@XOOOXXoooXoooXooXXXoXooXXXXXOOO  @@ OOOXXXXXXoXXoXooooXoooXoXXXXOOOX@@@@@@@@",
"@@@@XOOXXooooXXXXXooXXXoXXXX++++OOO  @@ OOO+++++XXXXoXooooXXXXXoooXXXOOX@@@@@@@@",
"@@@@XOOXXooooXXXXXooXXXoXXXX++++OOO  @@ OOO+++++XXXXoXooooXXXXXoooXXXOOX@@@@@@@@",
"@@@@XOOXXooooXXXXXoXXXXX++++OOOOOOO  @@ OOOOOOOO++++XXXXXoXXXXXoooXXXOOX@@@@@@@@",
"@@@@XOOXoooooXXXXXX+++++OOOOoXooOOO  @@ OOOoXXXoOOOO+++++XXXXXXoooooXOOX@@@@@@@@",
"@@@@XOOXoooooXX++++OOOOOoooooXooOOO  @@ OOOoXXXoooooOOOOO++++XXoooooXOOX@@@@@@@@",
"@@@@XOOXoooooXX++++OOOOOoooooXooOOO  @@ OOOoXXXoooooOOOOO++++XXoooooXOOX@@@@@@@@",
"@@@@XOOXXXXXX++OOOOoXXXoXooXooooOOO  @@ OOOoooooXoXXoXoooOOOO++XXXXXXOOX@@@@@@@@",
"@@@@XOOX+++++OOXXXooXXXooooXXoooOOO  @@ OOOXoooXXooooXooooXXXOO+++++XOOX@@@@@@@@",
"@@@@XOOX+++++OOXXXooXXXooooXXoooOOO  @@ OOOXoooXXooooXooooXXXOO+++++XOOX@@@@@@@@",
"@@@@XOOX+++++OOXXXooXXXooooXXoooOOO  @@ OOOXoooXXooooXooooXXXOO+++++XOOX@@@@@@@@",
"@@@@XOO+OOOOOXoooXoXXXXooooXXX++OOO  @@ OOOXXXXXXooooXXXXoXoooXOOOOO+OOX@@@@@@@@",
"@@@@XOOOoXoooXoooXoXXXXoXXXX++OOOOO  @@ OOO+++++XXXXoXXXXoXoooXoXXooOOOX@@@@@@@@",
"@@@@XOOXoooooXXooXoXXXXX++++OOOO   @@@@@   OOOOO++++XXXXXoXooXXoooooXOOX@@@@@@@@",
"@@@@XOOXoooooXXooXoXXXXX++++OOOO   @@@@@   OOOOO++++XXXXXoXooXXoooooXOOX@@@@@@@@",
"@@@@XOOXXooooXXXXXX+++++OOOO    @@@@@@@@@@@     OOOO+++++XXXXXXoooXXXOOX@@@@@@@@",
"@@@@XOOXXoXXXXX++++OOOOO    @@@@@@@@@@@@@@@@@@@@    OOOOO++++XXXooXXXOOX@@@@@@@@",
"@@@@XOOXXXXXX++OOOO     @@@@@@@@@@@@@@@@@@@@@@@@@@@@     OOOO++XXXXXXOOX@@@@@@@@",
"@@@@XOOXXXXXX++OOOO     @@@@@@@@@@@@@@@@@@@@@@@@@@@@     OOOO++XXXXXXOOX@@@@@@@@",
"@@@@XOOXXXXXX++OOOO     @@@@@@@@@@@@@@@@@@@@@@@@@@@@     OOOO++XXXXXXOOX@@@@@@@@",
"@@@@XOOX+++++OO    @@@@@@@@@@@@@@@@@@@@@@@@@@@@@@@@@@@@@@    OO+++++XOOX@@@@@@@@",
"@@@@XOO+OOOOO  @@@@@@@@@@@@@@@@@@@@@@@@@@@@@@@@@@@@@@@@@@@@@@  OOOOO+OOX@@@@@@@@",
"@@@@XOO+OOOOO  @@@@@@@@@@@@@@@@@@@@@@@@@@@@@@@@@@@@@@@@@@@@@@  OOOOO+OOX@@@@@@@@",
"@@@@XOOO     @@@@@@@@@@@@@@@@@@@@@@@@@@@@@@@@@@@@@@@@@@@@@@@@@@     OOOX@@@@@@@@",
"@@@@X   @@@@@@@@@@@@@@@@@@@@@@@@@@@@@@@@@@@@@@@@@@@@@@@@@@@@@@@@@@@@   X@@@@@@@@",
"@@@@ @@@@@@@@@@@@@@@@@@@@@@@@@@@@@@@@@@@@@@@@@@@@@@@@@@@@@@@@@@@@@@@@@@ @@@@@@@@",
"@@@@ @@@@@@@@@@@@@@@@@@@@@@@@@@@@@@@@@@@@@@@@@@@@@@@@@@@@@@@@@@@@@@@@@@ @@@@@@@@",
"@@@@@@@@@@@@@@@@@@@@@@@@@@@@@@@@@@@@@@@@@@@@@@@@@@@@@@@@@@@@@@@@@@@@@@@@@@@@@@@@",
"@@@@@@@@@@@@@@@@@@@@@@@@@@@@@@@@@@@@@@@@@@@@@@@@@@@@@@@@@@@@@@@@@@@@@@@@@@@@@@@@",
"@@@@@@@@@@@@@@@@@@@@@@@@@@@@@@@@@@@@@@@@@@@@@@@@@@@@@@@@@@@@@@@@@@@@@@@@@@@@@@@@",
"@@@@@@@@@@@@@@@@@@@@@@@@@@@@@@@@@@@@@@@@@@@@@@@@@@@@@@@@@@@@@@@@@@@@@@@@@@@@@@@@",
"@@@@@@@@@@@@@@@@@@@@@@@@@@@@@@@@@@@@@@@@@@@@@@@@@@@@@@@@@@@@@@@@@@@@@@@@@@@@@@@@",
"@@@@@@@@@@@@@@@@@@@@@@@@@@@@@@@@@@@@@@@@@@@@@@@@@@@@@@@@@@@@@@@@@@@@@@@@@@@@@@@@",
"@@@@@@@@@@@@@@@@@@@@@@@@@@@@@@@@@@@@@@@@@@@@@@@@@@@@@@@@@@@@@@@@@@@@@@@@@@@@@@@@",
"@@@@@@@@@@@@@@@@@@@@@@@@@@@@@@@@@@@@@@@@@@@@@@@@@@@@@@@@@@@@@@@@@@@@@@@@@@@@@@@@",
"@@@@@@@@@@@@@@@@@@@@@@@@@@@@@@@@@@@@@@@@@@@@@@@@@@@@@@@@@@@@@@@@@@@@@@@@@@@@@@@@",
"@@@@@@@@@@@@@@@@@@@@@@@@@@@@@@@@@@@@@@@@@@@@@@@@@@@@@@@@@@@@@@@@@@@@@@@@@@@@@@@@",
"@@@@@@@@@@@@@@@@@@@@@@@@@@@@@@@@@@@@@@@@@@@@@@@@@@@@@@@@@@@@@@@@@@@@@@@@@@@@@@@@",
"@@@@@@@@@@@@@@@@@@@@@@@@@@@@@@@@@@@@@@@@@@@@@@@@@@@@@@@@@@@@@@@@@@@@@@@@@@@@@@@@",
"@@@@@@@@@@@@@@@@@@@@@@@@@@@@@@@@@@@@@@@@@@@@@@@@@@@@@@@@@@@@@@@@@@@@@@@@@@@@@@@@",
"@@@@@@@@@@@@@@@@@@@@@@@@@@@@@@@@@@@@@@@@@@@@@@@@@@@@@@@@@@@@@@@@@@@@@@@@@@@@@@@@",
"@@@@@@@@@@@@@@@@@@@@@@@@@@@@@@@@@@@@@@@@@@@@@@@@@@@@@@@@@@@@@@@@@@@@@@@@@@@@@@@@"
};
