/* XPM */
static char *result[] = {
/* columns rows colors chars-per-pixel */
"80 80 10 1 ",
"  c #211F30",
". c #076029",
"X c #9C1B4D",
"o c #CC3048",
"O c #E44A4A",
"+ c #28860F",
"@ c #72A11D",
"# c #A4CC42",
"$ c white",
"% c None",
/* pixels */
"%%%%%%%%%%%%%%%%%%%%%%%%%%%%%%%%%%%%%%%%%%%%%%%%%%%%%%%%%%%%%%%%%%%%%%%%%%%%%%%%",
"%%%%%%%%%%%%%%%%%%%%%%%%%%%%%%%%%%%%%%%%%%%%%%%%%%%%%%%%%%%%%%%%%%%%%%%%%%%%%%%%",
"%%%%%%%%%%%%%%%%%%%%%%%%%%%%%%%%%%%%%%%%%%%%%%%%%%%%%%%%%%%%%%%%%%%%%%%%%%%%%%%%",
"%%%%%%%%%%%%%%%%%%%%%%%%%%%%%%%%%%%%%%%%%%%%%%%%%%%%%%%%%%%%%%%%%%%%%%%%%%%%%%%%",
"%%%%%%%%%%%%%%%%%%%%%%%%%%%%%%%%%%%%%%%%%%%%%%%%%%%%%%%%%%%%%%%%%%%%%%%%%%%%%%%%",
"%%%%%%%%%%%%%%%%%%%%%%%%%%%%%%%%%%%%%%%%%%%%%%%%%%%%%%%%%%%%%%%%%%%%%%%%%%%%%%%%",
"%%%%%%%%%%%%%%%%%%%%%%%%%%%%%%%%%%%%%%%%%%%%%%%%%%%%%%%%%%%%%%%%%%%%%%%%%%%%%%%%",
"%%%%%%%%%%%%%%%%%%%%%%%%%%%%%%%%%%%%%%%%%%%%%%%%%%%%%%%%%%%%%%%%%%%%%%%%%%%%%%%%",
"%%%%%%%%%%%%%%%%%%%%%%%%%%%%%%%%%%%%%%%%%%%%%%%%%%%%%%%%%%%%%%%%%%%%%%%%%%%%%%%%",
"%%%%%%%%%%%%%%%%%%%%%%%%%%%%%%%%%%%%%%%%%%%%%%%%%%%%%%%%%%%%%%%%%%%%%%%%%%%%%%%%",
"%%%%%%%%%%%%%%%%%%%%%%%%%%%%%%%%%%%%%%%%%%%%%%%%%%%%%%%%%%%%%%%%%%%%%%%%%%%%%%%%",
"%%%%%%%%%%%%%%%%%%%%%%%%%%%%%%%%%%%%%%%%%%%%%%%%%%%%%%%%%%%%%%%%%%%%%%%%%%%%%%%%",
"%%%%%%%%%%%%%%%%%%%%%%%%%%%%%%%%%%%%%%%%%%%%%%%%%%%%%%%%%%%%%%%%%%%%%%%%%%%%%%%%",
"%%%%%%%%%%%%%%%%%%%%%%%%%%%%%%%%%%%%%%%%%%%%%%%%%%%%%%%%%%%%%%%%%%%%%%%%%%%%%%%%",
"%%%%%%%%%%%%%%%%%%%%%%%%%%%%%%%%%%%%%%%%%%%%%%%%%%%%%%%%%%%%%%%%%%%%%%%%%%%%%%%%",
"%%%%%%%%%%%%%%%%%%%%%%%%%%%%%%%%%%%%%%%%%%%%%%%%%%%%%%%%%%%%%%%%%%%%%%%%%%%%%%%%",
"%%%%%%%%%%%%%%%%%%%%%%%%%%%%%%%%%%%%%%%%%%%%%%%%%%%%%%%%%%%%%%%%%%%%%%%%%%%%%%%%",
"%%%%%%%%%%%%%%%%%%%%%%%%%%%%%%%%%%%%%%%%%%%%%%%%%%%%%%%%%%%%%%%%%%%%%%%%%%%%%%%%",
"%%%%%%%%%%%%%%%%%%%%%%%%%%%%%%%%%%%%%%%%%%%%%%%%%%%%%%%%%%%%%%%%%%%%%%%%%%%%%%%%",
"%%%%%%%%%%%%%%%%%%%%%%%%%%%%%%%%%%%%%%%%%%%%%%%%%%%%%%%%%%%%%%%%%%%%%%%%%%%%%%%%",
"%%%%%%%%%%%%%%%%%%%%%%%%%%%%%%%%%%%%%%%%%%%%%%%%%%%%%%%%%%%%%%%%%%%%%%%%%%%%%%%%",
"%%%%%%%%%%%%%%%%%%%%%%%%%%%%%%%%%%%%%%%%%%%%%%%%%%%%%%%%%%%%%%%%%%%%%%%%%%%%%%%%",
"%%%%%%%%%%%%%%%%%%%%%%%%%%%%%%%%%%%%%%%%%%%%%%%%%%%%%%%%%%%%%%%%%%%%%%%%%%%%%%%%",
"%%%%%%%%%%%%%%%%%%%%%%%%%%%%%%%%%%%%%%%%%%%%%%%%%%%%%%%%%%%%%%%%%%%%%%%%%%%%%%%%",
"%%%%%%%%%%%%%%%%%%%%%%%%%%%%%%%%%%%%%%%%%%%%%%%%%%%%%%%%%%%%%%%%%%%%%%%%%%%%%%%%",
"%%%%%%%%%%%%%%%%%%%%%%%%%%%%%%%%%%%%%%%%%%%%%%%%%%%%%%%%%%%%%%%%%%%%%%%%%%%%%%%%",
"%%%%%%%%%%%%%%%%%%%%%%%%%%%%%%%%%%%%%%%%%%%%%%%%%%%%%%%%%%%%%%%%%%%%%%%%%%%%%%%%",
"%%%%%%%%%%%%%%         %%%%                  %%%%%%%          %%%%%%%%%%%%%%%%%%",
"%%%%%%%%%%%%%%         %%%%                  %%%%%%%          %%%%%%%%%%%%%%%%%%",
"%%%%%%%%%%%   OOOOOOOOO %% @@@@@@@@@@@@@@@@@@   %   @@@@@@@@@@   %%%%%%%%%%%%%%%",
"%%%%%%%%%%%   OOOOOOOOO %% @@@@@@@@@@@@@@@@@@   %   @@@@@@@@@@   %%%%%%%%%%%%%%%",
"%%%%%%%%%%%   OOOOOOOOO %% @@@@@@@@@@@@@@@@@@   %   @@@@@@@@@@   %%%%%%%%%%%%%%%",
"%%%%%%%%%%%   oooooooooX                                         %%%%%%%%%%%%%%%",
"%%%%%%%%%%%   oooooooooX                                         %%%%%%%%%%%%%%%",
"%%%%%%%%%%%   oooooooooX                                         %%%%%%%%%%%%%%%",
"%%%%%%%%%%%   oooooooooX                                         %%%%%%%%%%%%%%%",
"%%%%%%%%%%%%%%    XXXXX XXoOOOOOOOOOOooOOoooooooooooOOOOOooOOOOOO %%%%%%%%%%%%%%",
"%%%%%%%%%%%   ooXX         XXXXXXXXXXooXXoooooooooooXXXXXooXXX    %%%%%%%%%%%%%%",
"%%%%%%%%%%%   OOoo     XXXooooooooooooooooooooooooooooooooooooooo %%%%%%%%%%%%%%",
"%%%%%%%%%%%   OOoo     XXXooooooooooooooooooooooooooooooooooooooo %%%%%%%%%%%%%%",
"%%%%%%%%%%%   OOoo     XXXooooooooooooooooooooooooooooooooooooooo %%%%%%%%%%%%%%",
"%%%%%%%%%%%   OOoo     XXXooooooooooooooooooooooooooooooooooooooo %%%%%%%%%%%%%%",
"%%%%%%%%%%%   OOoo                                                %%%%%%%%%%%%%%",
"%%%%%%%%%%%   OO       +++++++++...$$$$$$$$$$...+...$$$$$$$$$$...+  %%%%%%%%%%%%",
"%%%%%%%%%%%%%%    +++++@@@@@@@@@+++..........+++@+++..........+++@  %%%%%%%%%%%%",
"%%%%%%%%%%%%%%    +++++@@@@@@@@@+++..........+++@+++..........+++@  %%%%%%%%%%%%",
"%%%%%%%%%%%%%%    +++++@@@@@@@@@+++..........+++@+++..........+++@  %%%%%%%%%%%%",
"%%%%%%%%%%%%%%%%  @@@@@@@@@@@@@@@@@@@@@@@@@@@@@@@@@@@@@@@@@@@@@@@@  %%%%%%%%%%%%",
"%%%%%%%%%%%%%%%%  @@@@@@@@@@@@@@@@@@@@@@@@@@@@@@@@@@@@@@@@@@@@@@@@  %%%%%%%%%%%%",
"%%%%%%%%%%%%%%%%  @@@@@@@@@@@@@@@@@@@@@@@@@@@@@@@@@@@@@@@@@@@@@@@@  %%%%%%%%%%%%",
"%%%%%%%%%%%%%%%%  @@@@@@@@@@@@@@@@@@@@@@@@@@@@@@@@@@@@@@@@@@@@@@@@  %%%%%%%%%%%%",
"%%%%%%%%%%%%%%%%  @@@@@@@@@@@@@@..............................@@@@  %%%%%%%%%%%%",
"%%%%%%%%%%%%%%%%  @@@@@@@@@+++++@@@@@@@@@@@@@@@@@@@@@@@@@@@@@@+++@  %%%%%%%%%%%%",
"%%%%%%%%%%%%%%%%  @@@@@@@@@+++++@@@@@@@@@@@@@@@@@@@@@@@@@@@@@@+++@  %%%%%%%%%%%%",
"%%%%%%%%%%%%%%%%  @@@@@@@@@@@@@@@@@@@@@@@++++++++++++++++@@@@@@@@@  %%%%%%%%%%%%",
"%%%%%%%%%%%%%%%%  @@@@@@@@@@@@@@@@@@@@@@@++++++++++++++++@@@@@@@@@  %%%%%%%%%%%%",
"%%%%%%%%%%%%%%%%%%     +@@@@@@@@@@@@@@@@@@@@@@@@@@@@@@@@@@@@@@+++ %%%%%%%%%%%%%%",
"%%%%%%%%%%%%%%%%%%     +@@@@@@@@@@@@@@@@@@@@@@@@@@@@@@@@@@@@@@+++ %%%%%%%%%%%%%%",
"%%%%%%%%%%%%%%%%%%     +@@@@@@@@@@@@@@@@@@@@@@@@@@@@@@@@@@@@@@+++ %%%%%%%%%%%%%%",
"%%%%%%%%%%%%%%%%%%%%%%% +++@@@@@@@@@@@@@@@@@@@@@@@@@@@@@@@@+++   %%%%%%%%%%%%%%%",
"%%%%%%%%%%%%%%%%%%%%%%%    @@@@@@@@@@@@@@@@@@@@@@@@@@@@@@@@      %%%%%%%%%%%%%%%",
"%%%%%%%%%%%%%%%%%%%%%%%    @@@@@@@@@@@@@@@@@@@@@@@@@@@@@@@@      %%%%%%%%%%%%%%%",
"%%%%%%%%%%%%%%%%%%%%%%%    @@@@@@@@@@@@@@@@@@@@@@@@@@@@@@@@      %%%%%%%%%%%%%%%",
"%%%%%%%%%%%%%%%%%%     @@@@@@@@@@@@@@####################@@@@ +++ %%%%%%%%%%%%%%",
"%%%%%%%%%%%%%%%%  +++++@@@+     @@@########################@@ ++++  %%%%%%%%%%%%",
"%%%%%%%%%%%%%%%%  +++++@@@+     @@@########################@@ ++++  %%%%%%%%%%%%",
"%%%%%%%%%%%%%%%%  +++++@@@+     @@@########################@@ ++++  %%%%%%%%%%%%",
"%%%%%%%%%%%%%%%%  +++++@@@+     @@@########################@@ ++++  %%%%%%%%%%%%",
"%%%%%%%%%%%%%%%%  +++++@@@+     @@@########################@@ ++++  %%%%%%%%%%%%",
"%%%%%%%%%%%%%%%%  ++++++++ @@@@@@@@########################@@ ++++  %%%%%%%%%%%%",
"%%%%%%%%%%%%%%%%%%        +@@@@@@@@@@####################@@@@     %%%%%%%%%%%%%%",
"%%%%%%%%%%%%%%%%%%        +@@@@@@@@@@####################@@@@     %%%%%%%%%%%%%%",
"%%%%%%%%%%%%%%%%%%%%%%%%  +@@@@@@@@                      @@@@ %%%%%%%%%%%%%%%%%%",
"%%%%%%%%%%%%%%%%%%%%%%%%  +@@@@@@@@                      @@@@ %%%%%%%%%%%%%%%%%%",
"%%%%%%%%%%%%%%%%%%%%%%%%  +@@@@@+++  %%%%%%%%%%%%   +++++@@++ %%%%%%%%%%%%%%%%%%",
"%%%%%%%%%%%%%%%%%%%%%%%%  +@@@@@+++  %%%%%%%%%%%%   +++++@@++ %%%%%%%%%%%%%%%%%%",
"%%%%%%%%%%%%%%%%%%%%%%%%  +@@@@@+++  %%%%%%%%%%%%   +++++@@++ %%%%%%%%%%%%%%%%%%",
"%%%%%%%%%%%%%%%%%%%%%%%%  ++++++   %%%%%%%%%%%%%%   +++++++  %%%%%%%%%%%%%%%%%%%",
"%%%%%%%%%%%%%%%%%%%%%%%%%%      %%%%%%%%%%%%%%%%%%%%       %%%%%%%%%%%%%%%%%%%%%",
"%%%%%%%%%%%%%%%%%%%%%%%%%%      %%%%%%%%%%%%%%%%%%%%       %%%%%%%%%%%%%%%%%%%%%"
};
