/* XPM */
static char *result[] = {
/* columns rows colors chars-per-pixel */
"80 80 191 2 ",
"   c black",
".  c #010101",
"X  c #020202",
"o  c gray1",
"O  c #040404",
"+  c gray2",
"@  c #060606",
"#  c #070707",
"$  c gray3",
"%  c gray4",
"&  c #0B0B0B",
"*  c #0C0C0C",
"=  c gray5",
"-  c #0E0E0E",
";  c gray7",
":  c gray8",
">  c #151515",
",  c #161616",
"<  c #191919",
"1  c gray10",
"2  c #1B1B1B",
"3  c gray11",
"4  c #1D1D1D",
"5  c gray13",
"6  c #222222",
"7  c gray15",
"8  c #272727",
"9  c #2C2C2C",
"0  c #2D2D2D",
"q  c gray18",
"w  c #2F2F2F",
"e  c gray19",
"r  c #343434",
"t  c #353535",
"y  c gray22",
"u  c gray23",
"i  c #3C3C3C",
"p  c gray24",
"a  c #464646",
"s  c gray29",
"d  c #4B4B4B",
"f  c gray30",
"g  c #4E4E4E",
"h  c gray32",
"j  c #535353",
"k  c #555555",
"l  c #585858",
"z  c gray35",
"x  c gray36",
"c  c gray37",
"v  c #606060",
"b  c gray38",
"n  c #646464",
"m  c #656565",
"M  c #676767",
"N  c #686868",
"B  c DimGray",
"V  c #6A6A6A",
"C  c gray42",
"Z  c #6C6C6C",
"A  c gray43",
"S  c #6F6F6F",
"D  c gray44",
"F  c #717171",
"G  c #727272",
"H  c gray45",
"J  c #777777",
"K  c #797979",
"L  c gray48",
"P  c #7C7C7C",
"I  c gray49",
"U  c #808080",
"Y  c #818181",
"T  c #848484",
"R  c gray52",
"E  c #868686",
"W  c gray53",
"Q  c #888888",
"!  c #898989",
"~  c gray54",
"^  c #8B8B8B",
"/  c gray55",
"(  c #8D8D8D",
")  c #8E8E8E",
"_  c gray56",
"`  c #909090",
"'  c gray57",
"]  c gray58",
"[  c #959595",
"{  c gray59",
"}  c #979797",
"|  c #989898",
" . c #9A9A9A",
".. c #9B9B9B",
"X. c gray61",
"o. c #9D9D9D",
"O. c gray62",
"+. c #9F9F9F",
"@. c #A0A0A0",
"#. c gray63",
"$. c #A2A2A2",
"%. c gray64",
"&. c #A4A4A4",
"*. c gray65",
"=. c #A7A7A7",
"-. c gray66",
";. c #A9A9A9",
":. c #AAAAAA",
">. c gray67",
",. c #ACACAC",
"<. c gray68",
"1. c #AEAEAE",
"2. c #AFAFAF",
"3. c gray69",
"4. c #B1B1B1",
"5. c #B2B2B2",
"6. c gray70",
"7. c #B4B4B4",
"8. c gray71",
"9. c #B6B6B6",
"0. c #B7B7B7",
"q. c gray72",
"w. c #B9B9B9",
"e. c gray73",
"r. c #BBBBBB",
"t. c #BCBCBC",
"y. c gray74",
"u. c gray",
"i. c gray75",
"p. c #C0C0C0",
"a. c #C1C1C1",
"s. c gray76",
"d. c #C3C3C3",
"f. c #C5C5C5",
"g. c #C6C6C6",
"h. c gray78",
"j. c #C8C8C8",
"k. c gray79",
"l. c #CACACA",
"z. c gray80",
"x. c #CECECE",
"c. c gray81",
"v. c #D0D0D0",
"b. c gray82",
"n. c #D2D2D2",
"m. c LightGray",
"M. c gray83",
"N. c #D5D5D5",
"B. c gray84",
"V. c #D7D7D7",
"C. c #D8D8D8",
"Z. c gray85",
"A. c #DADADA",
"S. c gray86",
"D. c gainsboro",
"F. c #DDDDDD",
"G. c gray87",
"H. c #DFDFDF",
"J. c gray88",
"K. c #E1E1E1",
"L. c #E2E2E2",
"P. c gray89",
"I. c #E4E4E4",
"U. c gray90",
"Y. c #E6E6E6",
"T. c #E7E7E7",
"R. c gray91",
"E. c #E9E9E9",
"W. c #EAEAEA",
"Q. c gray92",
"!. c #ECECEC",
"~. c gray93",
"^. c #EEEEEE",
"/. c #EFEFEF",
"(. c gray94",
"). c #F1F1F1",
"_. c gray95",
"`. c #F3F3F3",
"'. c #F4F4F4",
"]. c gray96",
"[. c #F6F6F6",
"{. c gray97",
"}. c #F8F8F8",
"|. c #F9F9F9",
" X c gray98",
".X c #FBFBFB",
"XX c gray99",
"oX c #FDFDFD",
"OX c #FEFEFE",
"+X c white",
"@X c None",
/* pixels */
"@X@X@X@X@X@X@X@X@X@X@X@X@X@X@X@X@X@X@X@X@X@X@X@X@X@X@X@X@X@X@X@X@X@X@X@X@X@X@X@X@X@X@X@X@X@X@X@X@X@X@X@X@X@X@X@X@X@X@X@X@X@X@X@X@X@X@X@X@X@X@X@X@X@X@X@X@X@X@X@X",
"@X@X@X@X@X@X@X@X@X@X@X@X@X@X@X@X@X@X@X@X@X@X@X@X@X@X@X@X@X@X@X@X@X@X@X@X@X@X@X@X@X@X@X@X@X@X@X@X@X@X@X@X@X@X@X@X@X@X@X@X@X@X@X@X@X@X@X@X@X@X@X@X@X@X@X@X@X@X@X@X",
"@X@X@X@X@X@X@X@X@X@X@X@X@X@X@X@X@X@X@X@X@X@X@X@X@X@X@X@X@X@X@X@X@X@X@X@X@X@X@X@X@X@X@X@X@X@X@X@X@X@X@X@X@X@X@X@X@X@X@X@X@X@X@X@X@X@X@X@X@X@X@X@X@X@X@X@X@X@X@X@X",
"@X@X@X@X@X@X@X@X@X@X@X@X@X@X@X@X@X@X@X@X@X@X@X@X@X@X@X@X@X@X@X@X@X@X@X@X@X@X@X@X@X@X@X@X@X@X@X@X@X@X@X@X@X@X@X@X@X@X@X@X@X@X@X@X@X@X@X@X@X@X@X@X@X@X@X@X@X@X@X@X",
"@X@X@X@X@X@X@X@X@X@X@X@X@X@X@X@X@X@X@X@X@X@X@X@X@X@X@X@X@X@X@X@X@X@X@X@X@X@X@X@X@X@X@X@X@X@X@X@X@X@X@X@X@X@X@X@X@X@X@X@X@X@X@X@X@X@X@X@X@X@X@X@X@X@X@X@X@X@X@X@X",
"@X@X@X@X@X@X@X@X@X@X@X@X@X@X@X@X@X@X@X@X@X@X@X@X@X@X@X@X@X@X@X@X@X@X@X@X@X@X@X@X@X@X@X@X@X@X@X@X@X@X@X@X@X@X@X@X@X@X@X@X@X@X@X@X@X@X@X@X@X@X@X@X@X@X@X@X@X@X@X@X",
"@X@X@X@X@X@X@X@X@X@X@X@X@X@X@X@X@X@X@X@X@X@X@X@X@X@X@X@X@X@X@X@X@X@X@X@X@X@X@X@X@X@X@X@X@X@X@X@X@X@X@X@X@X@X@X@X@X@X@X@X@X@X@X@X@X@X@X@X@X@X@X@X@X@X@X@X@X@X@X@X",
"@X@X@X@X@X@X@X@X@X@X@X@X@X@X@X@X@X@X@X@X@X@X@X@X@X@X@X@X@X@X@X@X@X@X@X@X@X@X@X@X@X@X@X@X@X@X@X@X@X@X@X@X@X@X@X@X@X@X@X@X@X@X@X@X@X@X@X@X@X@X@X@X@X@X@X@X@X@X@X@X",
"@X@X@X@X@X@X@X@X@X@X@X@X@X@X@X@X@X@X@X@X@X@X@X@X@X@X@X@X@X@X@X@X@X@X@X@X@X@X@X@X@X@X@X@X@X@X@X@X@X@X@X@X@X@X@X@X@X@X@X@X@X@X@X@X@X@X@X@X@X@X@X@X@X@X@X@X@X@X@X@X",
"@X@X@X@X@X@X@X@X@X@X@X@X@X@X@X@X@X@X@X@X@X@X@X@X@X@X@X@X@X@X@X@X@X@X@X@X@X@X@X@X@X@X@X@X@X@X@X@X@X@X@X@X@X@X@X@X@X@X@X@X@X@X@X@X@X@X@X@X@X@X@X@X@X@X@X@X@X@X@X@X",
"@X@X@X@X@X@X@X@X@X@X@X@X@X@X@X@X@X@X@X@X@X@X@X@X@X@X@X@X@X@X@X@X@X@X@X@X@X@X@X@X@X@X@X@X@X@X@X@X@X@X@X@X@X@X@X@X@X@X@X@X@X@X@X@X@X@X@X@X@X@X@X@X@X@X@X@X@X@X@X@X",
"@X@X@X@X@X@X@X@X@X@X@X@X@X@X@X@X@X@X@X@X@X@X@X@X@X@X@X                                                @X@X@X@X@X@X@X@X@X@X@X@X@X@X@X@X@X@X@X@X@X@X@X@X@X@X@X@X@X",
"@X@X@X@X@X@X@X@X@X@X@X@X@X@X@X@X@X@X@X@X@X@X@X@X@X@X@Xo O o o + + + + + + + + + + + + + + + + + + + @ @X@X@X@X@X@X@X@X@X@X@X@X@X@X@X@X@X@X@X@X@X@X@X@X@X@X@X@X@X",
"@X@X@X@X@X@X@X@X@X@X@X@X@X@X@X@X@X@X@X@X@X@X@X@X@X@X@X                                                @X@X@X@X@X@X@X@X@X@X@X@X@X@X@X@X@X@X@X@X@X@X@X@X@X@X@X@X@X",
"@X@X@X@X@X@X@X@X@X@X@X@X@X@X@X@X@X@X@X@X@X@X@X@X@X@X@Xi k f s V H G H H H H H H H H H H H H H H F H h @X@X@X@X@X@X@X@X@X@X@X@X@X@X@X@X@X@X@X@X@X@X@X@X@X@X@X@X@X",
"@X@X@X@X@X@X@X@X@X@X@X@X@X@X@X@X@X@X@X@X          O   S n.u.9.+X+X+X+X+X+X+X+X+X+X+X+X+X+X+X+X+X+X+X[   @           @X@X@X@X@X@X@X@X@X@X@X@X@X@X@X@X@X@X@X@X@X@X",
"@X@X@X@X@X@X@X@X@X@X@X@X@X@X@X@X@X@X@X@X+ + + + @ & @ C e.;.$.Y.}.{.}.}.}.}.}.}.}.}.}.}.}.}.}.}._.}.) # - # # # # # @X@X@X@X@X@X@X@X@X@X@X@X@X@X@X@X@X@X@X@X@X@X",
"@X@X@X@X@X@X@X@X@X@X@X@X@X@X@X@X@X@X@X@X              z 8.$. .E.+XOX+X+X+X+X+X+X+X+X+X+X+X+X+X+X}.+XU               @X@X@X@X@X@X@X@X@X@X@X@X@X@X@X@X@X@X@X@X@X@X",
"@X@X@X@X@X@X@X@X@X@X@X@X@X@X@X@X  X   7 K Z V L ( / Q u.Y.J.F.}.+XOX+X+X+X+X+X+X+X+X+X+X+X+X+X+XXX+XN.@X@X@X@X@X@X@X@X  X   @X@X@X@X@X@X@X@X@X@X@X@X@X@X@X@X@X@X",
"@X@X@X@X@X@X@X@X@X@X@X@X@X@X@X@X  .   w v.0.0.n.'.^.W.oX+X+X+X+X+X+X+X+X+X+X+X+X+X+X+X+X+X+X+X+X+X+X+X+X+X+X+X+X+X+X@X  X   @X@X@X@X@X@X@X@X@X@X@X@X@X@X@X@X@X@X",
"@X@X@X@X@X@X@X@X@X@X@X@X@X@X@X@X  X   0 y.*.*.u.F.C.M.^.oXXXoXOX+XOX+X+X+X+X+X+X+X+X+X+X+X+X+X+XOX+XoX X X X X X_. X@X  X   @X@X@X@X@X@X@X@X@X@X@X@X@X@X@X@X@X@X",
"@X@X@X@X@X@X@X@X@X@X@X@X@X@X@X@X  .   0 e.&.%.y.F.V.m./.+XOX+X+X+X+X+X+X+X+X+X+X+X+X+X+X+X+X+X+X+X+X+X+X+X+X+X+X{.+X@X  X   @X@X@X@X@X@X@X@X@X@X@X@X@X@X@X@X@X@X",
"@X@X@X@X@X@X@X@X@X@X@X@X@X@X@X@X  X   y R.z.x.L.}.{.{.XX+XOX+X+X+X+X+X+X+X+X+X+X+X+X+X+X+X+X+X+X+X+X+X+X+X+X+X+X{.+X@X  X   @X@X@X@X@X@X@X@X@X@X@X@X@X@X@X@X@X@X",
"@X@X@X@X@X@X@X@X@X@X@X@X@X@X@X@X  X   u ].V.A.!.+X+X+X+X+X+X+X+X+X+X+X+X+X+X+X+X+X+X+X+X+X+X+X+X+X+X+X+X+X+X+X+X{.+X@X  X   @X@X@X@X@X@X@X@X@X@X@X@X@X@X@X@X@X@X",
"@X@X@X@X@X@X@X@X@X@X@X@X@X@X@X@XX O . u ).M.V.W.OXoXOXOX+XOX+X+X+X+X+X+X+X+X+X+X+X+X+X+X+X+X+X+X+X+X+X+X+X+X+X+X{.+X@XX + X @X@X@X@X@X@X@X@X@X@X@X@X@X@X@X@X@X@X",
"@X@X@X@X@X@X@X@X@X@X@X@X@X@X@X@X      t _.N.V.W.+XOX+X+X+X+X+X+X+X+X+X+X+X+X+X+X+X+X+X+X+X+X+X+X+X+X+X+X+X+X+X+X{.+Xe       @X@X@X@X@X@X@X@X@X@X@X@X@X@X@X@X@X@X",
"@X@X@X@X@X@X@X@X@X@X@X@X      > 1.O.+.4.J.A.V.W.+XOX+X+X+X+X+X+X+X+X+X+X+X+X+X+X+X+X+X+X+X+X+X+X+X+X+X+X+X+X+X+XOX+X_./.W./.>       @X@X@X@X@X@X@X@X@X@X@X@X@X@X",
"@X@X@X@X@X@X@X@X@X@X@X@X      > y.<.<.r.H.A.V.W.+XOX+X+X+X+X+X+X+X+X+X+X+X+X+X+X+X+X+X+X+X+X+X+X+X+X+X+X+X+X+X+X+X+X+X+X+X+X>       @X@X@X@X@X@X@X@X@X@X@X@X@X@X",
"@X@X@X@X@X@X@X@X@X@X@X@X      > w.-.;.q.H.Z.B.W.+XoX+X+X+X+X+X+X+X+X+X+X+X+X+X+X+X+X+X+X+X+X+X+X+X+X+X+X+X+X+X+XOX+XOXOX|.OX>       @X@X@X@X@X@X@X@X@X@X@X@X@X@X",
"@X@X@X@X@X@X@X@X@X@X@X@X      > w.;.;.w.K.D.Z.Q.+XOX+X+X+X+X+X+X+X+X+X+X+X+X+X+X+X+X+X+X+X+X+X+X+X+X+X+X+X+X+X+X+X+X+X+X X+X>       @X@X@X@X@X@X@X@X@X@X@X@X@X@X",
"@X@X@X@X@X@X@X@X@X@X@X@X      > w.:.*.d.+XoX+X+X+X+X+X+X+X+X+X+X+X+X+X+X+X+X+X+X+X+X+X+X+X+X+X+X+X+X+X+X+X+X+X+X+X+X+X+X X+X>       @X@X@X@X@X@X@X@X@X@X@X@X@X@X",
"@X@X@X@X@X@X@X@X@X@X@X@X      > w.:.=.d.OXXXOXOXoXoXoXoXoXoXoXoXoXoXoXOX+XOXOXOXOXOXOXoXoXoXoXoXoXoXoXoXoXoXOX+XOX+X+X+X X+X>       @X@X@X@X@X@X@X@X@X@X@X@X@X@X",
"@X@X@X@X@X@X@X@X@X@X@X@X      > 9.=.&.a.+XXX+X+X+X+X+X+X+X+X+X+X+X+X+X+X+X+X+X+X+X+X+X+X+X+X+X+X+X+X+X+X+X+X+X+X+X+X+X+X X+X>       @X@X@X@X@X@X@X@X@X@X@X@X@X@X",
"@X@X@X@X@X@X@X@X@X@X@X@X      , s.5.3.k.+X.X+XW.x.c.x.x.x.x.x.x.x.c.x. X+XOXOX}.}.|._.x.c.x.x.x.x.x.x.x.c.x.!.+XOX+X+X+X X+X>       @X@X@X@X@X@X@X@X@X@X@X@X@X@X",
"@X@X@X@X@X@X@X@X@X@X@X@X      2 /.A.D.T.+X}.+XE                       I.+XOXOXV.B.K.0.                      ] +X|.+X+X+X X+X>       @X@X@X@X@X@X@X@X@X@X@X@X@X@X",
"@X@X@X@X@X@X@X@X@X@X@X@X      1 E.N.V.L. X'. X` @ = @ @ @ @ @ @ @ & @ T.+XOXOXA.A.P.u.@ & @ @ @ @ @ @ @ = @ o. X[. XOX+X X+X>       @X@X@X@X@X@X@X@X@X@X@X@X@X@X",
"@X@X@X@X@X@X@X@X@X@X@X@X      2 W.V.B.W.+X+X+Xo.  #               O   Y.+XOXOXG.G.R.a.  O               $   >.+X+X+X+X+X.X+X>       @X@X@X@X@X@X@X@X@X@X@X@X@X@X",
"@X@X@X@X@X@X@X@X@X@X@X@X      2 W.N.G.z.&.$.&.x   O               O   Y.+XOXOXl.k.n.2.  O               O   m &.%.&.W.+X X+X>       @X@X@X@X@X@X@X@X@X@X@X@X@X@X",
"@X@X@X@X@X@X@X@X@X@X@X@X      2 W.m.!.|                           O   Y.+X+XoX=.=.1.'   o                           p.+X}.+X>       @X@X@X@X@X@X@X@X@X@X@X@X@X@X",
"@X@X@X@X@X@X@X@X@X@X@X@X      2 W.m.W.$.# = # O                   O   Y.+XOXoX<.<.8.}   o                   O # - # j.+X}.+X>       @X@X@X@X@X@X@X@X@X@X@X@X@X@X",
"@X@X@X@X@X@X@X@X@X@X@X@X      2 W.m.W.@.  @                       O   Y.+X+XoX,.,.7.[   o                       #   g.+X}.+X>       @X@X@X@X@X@X@X@X@X@X@X@X@X@X",
"@X@X@X@X@X@X@X@X@X@X@X@X      2 W.m.W.@.  @                       O   Y.+X+XoX,.,.7.[   o                       #   g.+X}.+X>       @X@X@X@X@X@X@X@X@X@X@X@X@X@X",
"@X@X@X@X@X@X@X@X@X@X@X@X      2 W.m.W.@.  @                       O   Y.+X+XoX,.,.7.[   o                       #   g.+X}.+X>       @X@X@X@X@X@X@X@X@X@X@X@X@X@X",
"@X@X@X@X@X@X@X@X@X@X@X@X      1 E.n.R.#.# = # O               + # & # Y.oXoXXX1.1.9.| O $ + o               O # - # j.+X}.+X>       @X@X@X@X@X@X@X@X@X@X@X@X@X@X",
"@X@X@X@X@X@X@X@X@X@X@X@X      2 /.C._.X.                              T.+X+X+X%.%.>.^                               p.+X}.+X>       @X@X@X@X@X@X@X@X@X@X@X@X@X@X",
"@X@X@X@X@X@X@X@X@X@X@X@X      , h.9.e.w.9.5.9.M   +       +   / 9.8.9.J.I.U.U.T.T.E.Z.J P T z   o       +   D 9.8.9.^.+X X+X>       @X@X@X@X@X@X@X@X@X@X@X@X@X@X",
"@X@X@X@X@X@X@X@X@X@X@X@X      : 8.=.#.f.+X+X+X..  #       #   n.+X+X+XF.V.C.Z.+X+X+X.X6.w.h.R   +       #   ;.+X+X+X+X+X.X+X>       @X@X@X@X@X@X@X@X@X@X@X@X@X@X",
"@X@X@X@X@X@X@X@X@X@X@X@X      > w.:.=.s..X`..X` + * + + + * + s..X}..XA.N.B.V.}.}.}.^.*.,.w.I + % + + + * + o..X{..XOX+X X+X>       @X@X@X@X@X@X@X@X@X@X@X@X@X@X",
"@X@X@X@X@X@X@X@X@X@X@X@X      > w.:.*.d.+X|.+X!               a.+XOX+X~.E.W.Q.+X+X+X+X@.=.7.G               { +X X+X+X+X X+X>       @X@X@X@X@X@X@X@X@X@X@X@X@X@X",
"@X@X@X@X@X@X@X@X@X@X@X@X      > w.;.;.e.P.G.D.G.F.F.F.F.F.F.F.H.F.D.W.q 3 3 3 5 5 5 p `./.[.^.F.G.F.F.F.G.F._.+XOX+X+X+X X+X>       @X@X@X@X@X@X@X@X@X@X@X@X@X@X",
"@X@X@X@X@X@X@X@X@X@X@X@X      > w.;.;.q.G.Z.N.^.+X+X+X+X+X+X+XI.V.B.Y.*             < +XXX+X+X+X+X+X+X+X+X+X+XOX+XOXOXOX XOX>       @X@X@X@X@X@X@X@X@X@X@X@X@X@X",
"@X@X@X@X@X@X@X@X@X@X@X@X      > w.:.;.w.J.A.V.W.OXoXOXOXOXoXOXP.C.V.T.>   .     .   6 OX|.OXOXOXOXOXOXOXOXOXOX+X+X+X+X+X.X+X>       @X@X@X@X@X@X@X@X@X@X@X@X@X@X",
"@X@X@X@X@X@X@X@X@X@X@X@X      > w.:.;.w.J.A.V.W.+XOX+X+X+XoX+XP.C.V.T.:         .   6 +X|.+X+X+X+X+X+X+X+X+X+X+X+X+X+X+X.X+X>       @X@X@X@X@X@X@X@X@X@X@X@X@X@X",
"@X@X@X@X@X@X@X@X@X@X@X@X@X@X@X@X. . . . X @ X v `.B.V.(.+XoX+XP.C.V.T.:         .   6 +X|.+X+X+X+X+X+X+X{.+X@XX # X X X X X @X@X@X@X@X@X@X@X@X@X@X@X@X@X@X@X@X@X",
"@X@X@X@X@X@X@X@X@X@X@X@X@X@X@X@X          o   c _.M.B.(.OXoXOXP.C.V.T.>   .     .   6 +X|.+X+X+XOX+XOXOX].OX@X  o           @X@X@X@X@X@X@X@X@X@X@X@X@X@X@X@X@X@X",
"@X@X@X@X@X@X@X@X@X@X@X@X@X@X@X@X          O   v .XF.G.'.+XOX+XL.V.B.T.*             1 +X|.+X+X+X+X+X+X+X+X+X@X  O           @X@X@X@X@X@X@X@X@X@X@X@X@X@X@X@X@X@X",
"@X@X@X@X@X@X@X@X@X@X@X@X@X@X@X@X          +   l V.u.u.I.oX|. XU.F.D.W.w 3 4 3 3 4 3 u +X|.+X+X+XOX+X_.L.S.L.@X  +           @X@X@X@X@X@X@X@X@X@X@X@X@X@X@X@X@X@X",
"@X@X@X@X@X@X@X@X@X@X@X@X@X@X@X@X@X@X@X@X@X@X@X@X      I ^.N.M.{.+X+X+X+X+X+X+X+X+X+X+X+X+X+X+X+X|.+XR       @X@X@X@X@X@X@X@X@X@X@X@X@X@X@X@X@X@X@X@X@X@X@X@X@X@X",
"@X@X@X@X@X@X@X@X@X@X@X@X@X@X@X@X@X@X@X@X@X@X@X@XO % O E /.C.V.`..X.X.X X|.|.|.|.|.|.|.XXXXXXXX+X|.+X_ + & + @X@X@X@X@X@X@X@X@X@X@X@X@X@X@X@X@X@X@X@X@X@X@X@X@X@X",
"@X@X@X@X@X@X@X@X@X@X@X@X@X@X@X@X@X@X@X@X@X@X@X@X  @   E `.S.Z.+X+X+X+X+X+X+X+X+X+X+X+X+X+X+X+X+X|.+X(   #   @X@X@X@X@X@X@X@X@X@X@X@X@X@X@X@X@X@X@X@X@X@X@X@X@X@X",
"@X@X@X@X@X@X@X@X@X@X@X@X@X@X@X@X@X@X@X@X@X@X@X@X  @   I L.l.v.i.r.t.r.}.+X+XOXE.E.Q.P.r.y.r.x.+X{.+X(   #   @X@X@X@X@X@X@X@X@X@X@X@X@X@X@X@X@X@X@X@X@X@X@X@X@X@X",
"@X@X@X@X@X@X@X@X@X@X@X@X@X@X@X@X@X@X@X@X@X@X@X@X  O   m q.+.r.;       I.+X+XoX%.%.,.~       r +X(.+X(   #   @X@X@X@X@X@X@X@X@X@X@X@X@X@X@X@X@X@X@X@X@X@X@X@X@X@X",
"@X@X@X@X@X@X@X@X@X@X@X@X@X@X@X@X@X@X@X@X@X@X@X@X  +   N e.#.r.0 # = # L.|.|.}.:.>.5.[ # - # d |.Q.|.~   #   @X@X@X@X@X@X@X@X@X@X@X@X@X@X@X@X@X@X@X@X@X@X@X@X@X@X",
"@X@X@X@X@X@X@X@X@X@X@X@X@X@X@X@X@X@X@X@X@X@X@X@X  +   A v.7.b.9   @   OX+X+X+Xy.y.g.&.  #   g +X+X+X]   #   @X@X@X@X@X@X@X@X@X@X@X@X@X@X@X@X@X@X@X@X@X@X@X@X@X@X",
"@X@X@X@X@X@X@X@X@X@X@X@X@X@X@X@X@X@X@X@X@X@X@X@X  O   a B x V ,   o   Y ) ) ( v v n j   o   8 ) W ) b   +   @X@X@X@X@X@X@X@X@X@X@X@X@X@X@X@X@X@X@X@X@X@X@X@X@X@X",
"@X@X@X@X@X@X@X@X@X@X@X@X@X@X@X@X@X@X@X@X@X@X@X@X@X@X@X                                                @X@X@X@X@X@X@X@X@X@X@X@X@X@X@X@X@X@X@X@X@X@X@X@X@X@X@X@X@X",
"@X@X@X@X@X@X@X@X@X@X@X@X@X@X@X@X@X@X@X@X@X@X@X@X@X@X@Xo + O + .       @ # # # O O + O       . # @ # + @X@X@X@X@X@X@X@X@X@X@X@X@X@X@X@X@X@X@X@X@X@X@X@X@X@X@X@X@X",
"@X@X@X@X@X@X@X@X@X@X@X@X@X@X@X@X@X@X@X@X@X@X@X@X@X@X@X                                                @X@X@X@X@X@X@X@X@X@X@X@X@X@X@X@X@X@X@X@X@X@X@X@X@X@X@X@X@X",
"@X@X@X@X@X@X@X@X@X@X@X@X@X@X@X@X@X@X@X@X@X@X@X@X@X@X@X@X@X@X@X@X@X@X@X@X@X@X@X@X@X@X@X@X@X@X@X@X@X@X@X@X@X@X@X@X@X@X@X@X@X@X@X@X@X@X@X@X@X@X@X@X@X@X@X@X@X@X@X@X",
"@X@X@X@X@X@X@X@X@X@X@X@X@X@X@X@X@X@X@X@X@X@X@X@X@X@X@X@X@X@X@X@X@X@X@X@X@X@X@X@X@X@X@X@X@X@X@X@X@X@X@X@X@X@X@X@X@X@X@X@X@X@X@X@X@X@X@X@X@X@X@X@X@X@X@X@X@X@X@X@X",
"@X@X@X@X@X@X@X@X@X@X@X@X@X@X@X@X@X@X@X@X@X@X@X@X@X@X@X@X@X@X@X@X@X@X@X@X@X@X@X@X@X@X@X@X@X@X@X@X@X@X@X@X@X@X@X@X@X@X@X@X@X@X@X@X@X@X@X@X@X@X@X@X@X@X@X@X@X@X@X@X",
"@X@X@X@X@X@X@X@X@X@X@X@X@X@X@X@X@X@X@X@X@X@X@X@X@X@X@X@X@X@X@X@X@X@X@X@X@X@X@X@X@X@X@X@X@X@X@X@X@X@X@X@X@X@X@X@X@X@X@X@X@X@X@X@X@X@X@X@X@X@X@X@X@X@X@X@X@X@X@X@X",
"@X@X@X@X@X@X@X@X@X@X@X@X@X@X@X@X@X@X@X@X@X@X@X@X@X@X@X@X@X@X@X@X@X@X@X@X@X@X@X@X@X@X@X@X@X@X@X@X@X@X@X@X@X@X@X@X@X@X@X@X@X@X@X@X@X@X@X@X@X@X@X@X@X@X@X@X@X@X@X@X",
"@X@X@X@X@X@X@X@X@X@X@X@X@X@X@X@X@X@X@X@X@X@X@X@X@X@X@X@X@X@X@X@X@X@X@X@X@X@X@X@X@X@X@X@X@X@X@X@X@X@X@X@X@X@X@X@X@X@X@X@X@X@X@X@X@X@X@X@X@X@X@X@X@X@X@X@X@X@X@X@X",
"@X@X@X@X@X@X@X@X@X@X@X@X@X@X@X@X@X@X@X@X@X@X@X@X@X@X@X@X@X@X@X@X@X@X@X@X@X@X@X@X@X@X@X@X@X@X@X@X@X@X@X@X@X@X@X@X@X@X@X@X@X@X@X@X@X@X@X@X@X@X@X@X@X@X@X@X@X@X@X@X",
"@X@X@X@X@X@X@X@X@X@X@X@X@X@X@X@X@X@X@X@X@X@X@X@X@X@X@X@X@X@X@X@X@X@X@X@X@X@X@X@X@X@X@X@X@X@X@X@X@X@X@X@X@X@X@X@X@X@X@X@X@X@X@X@X@X@X@X@X@X@X@X@X@X@X@X@X@X@X@X@X",
"@X@X@X@X@X@X@X@X@X@X@X@X@X@X@X@X@X@X@X@X@X@X@X@X@X@X@X@X@X@X@X@X@X@X@X@X@X@X@X@X@X@X@X@X@X@X@X@X@X@X@X@X@X@X@X@X@X@X@X@X@X@X@X@X@X@X@X@X@X@X@X@X@X@X@X@X@X@X@X@X",
"@X@X@X@X@X@X@X@X@X@X@X@X@X@X@X@X@X@X@X@X@X@X@X@X@X@X@X@X@X@X@X@X@X@X@X@X@X@X@X@X@X@X@X@X@X@X@X@X@X@X@X@X@X@X@X@X@X@X@X@X@X@X@X@X@X@X@X@X@X@X@X@X@X@X@X@X@X@X@X@X",
"@X@X@X@X@X@X@X@X@X@X@X@X@X@X@X@X@X@X@X@X@X@X@X@X@X@X@X@X@X@X@X@X@X@X@X@X@X@X@X@X@X@X@X@X@X@X@X@X@X@X@X@X@X@X@X@X@X@X@X@X@X@X@X@X@X@X@X@X@X@X@X@X@X@X@X@X@X@X@X@X",
"@X@X@X@X@X@X@X@X@X@X@X@X@X@X@X@X@X@X@X@X@X@X@X@X@X@X@X@X@X@X@X@X@X@X@X@X@X@X@X@X@X@X@X@X@X@X@X@X@X@X@X@X@X@X@X@X@X@X@X@X@X@X@X@X@X@X@X@X@X@X@X@X@X@X@X@X@X@X@X@X"
};
