/* XPM */
static char *result[] = {
/* columns rows colors chars-per-pixel */
"80 80 4 1 ",
"  c #5A5A59",
". c #676767",
"X c gray43",
"o c gray54",
/* pixels */
"XXXX XXXX XXXXXX XXXXXX XXXXX  XXXXX XXXXXX XXX XX XXXX XXXXXX XXXXX XXXXXX XXX ",
"XXXX XXXX XXXX X XXXXXX XXXXX  XXXXX XXXXXX XXXXXX XXXX XXXXXX XXXXX XXXXXX XXXX",
".... .... .....  ...... .....   .... ...... ...... .... ......  .... ...... ....",
"                                                                                ",
"o ooooo oooo oooooo oooooo oooooo oooooo oooooo oooo ooooo oooooo oooooo oooooo ",
"X XXXXX XXXX XXXXXX XXXXXX XXXXXX XXXXXX XXXXXX XXXX XXXXX XXXXXX XXXXXX XXXXXX ",
"X XXXXX XXXX XXXXXX XXXXXX XXXXXX  XXXXX XXXXXX XXXX XXXXX XXXXXX  XXXXX XXXXXX ",
". ..... .... ...... ...... ...... ...... ...... .... ..... ...... ...... ...... ",
"                                                                                ",
"oooo oooo ooooo ooooooo oooooooooooo ooooooo ooooo oooo ooooo oooooo ooooooo ooo",
"XXXX XXXX XXXXX XXXXXXX XXXXXXXXXXXX XXXXXXX XXXXX XXXX XXXXX XXXXXX XXXXXXX XXX",
"XXXX XXXX  X  X XX  XXX XXXXXXXXXXXX XXXXXXX XXXXX X XX XXXXX XXXXXX XXXXXXX XXX",
".... .... ..    .... .. ............ ....... ..... .... ..... ...... ....... ...",
"                                                                                ",
"o oooo ooooo oooooo oooooo oooooo oooooo oooooo ooooo oooo oooooo oooooo oooooo ",
" XXXXX XXXXXX XXX XX XXXX XXXXXX XXXXX X XXXXXX XXXXX XXXX XXXXXX XXXXXX XXXXXX ",
" XXXXX XXXXXX XXXXXX XXXX XXXXXX XXXXX X XXXXXX XXXXX XXXX XXXXXX XXXXXX XXXXXX ",
"  .... ...... ...... .... ......  .... . ...... ....  .... ...... ...... ...... ",
"                                                                                ",
"ooo oooooo oooooo oooo ooooo oooooo oooooooo ooooo oooo oooooo ooooo ooooooo ooo",
"XXX XXXXXX XXXXXX XXXX XXXXX XXXXXX XXXXXXXX XXXXX XXXX XXXXXX XXXXX XXXXXXX XXX",
"XXX  XXXXX XXXXXX XXXX XXXXX XXXXXX  XXXXXXX XXXXX X XX XXXXXX XXXXX XXXXXXX XXX",
"... ...... ...... .... ..... ...... ........ ..... .... ...... ..... ....... ...",
"                                                                                ",
"X XXXX XXXXXX XXXXXX XXXXX  XXXXX XXXXXX XXX XX XXXX XXXXXX XXXX XXXXXX XXXXX X ",
"X XXXX XXXX X XXXXXX XXXXX  XXXXX XXXXXX XXXXXX XXXX XXXXXX XXXX XXXXXX XXXXX X ",
". .... .....  ...... .....   .... ...... ...... .... ...... .... ......  .... . ",
"                                                                                ",
"oooo oooo oooooo oooooo oooooo oooooo oooooo oooo ooooo ooooo ooooo oooooo ooooo",
"XXXX XXXX XXXXXX XXXXXX XXXXXX XXXXXX XXXXXX XXXX XXXXX XXXXX XXXXX XXXXXX XXXXX",
"XXXX XXXX XXXXXX XXXXXX XXXXXX  XXXXX XXXXXX XXXX XXXXX XXXXX XXXXX XXXXXX  XXXX",
".... .... ...... ...... ...... ...... ...... .... ..... ..... ..... ...... .....",
"                                                                                ",
"o oooo ooooo ooooooo oooooooooooo ooooooo ooooo oooo ooooo  XXXXX  XXXXX XXXXXX ",
"X XXXX XXXXX XXXXXXX XXXXXXXXXXXX XXXXXXX XXXXX XXXX XXXXX  XXXXX  XXXXX XXXXXX ",
"X XXXX  X  X XX  XXX XXXXXXXXXXXX XXXXXXX XXXXX X XX XXXXX  .....   .... ...... ",
". .... ..    .... .. ............ ....... ..... .... .....                      ",
"                                                           ooo oooooo oooooo ooo",
"ooo ooooo oooooo oooooo oooooo oooooo oooooo ooooo oooo oooXXX XXXXXX XXXXXX XXX",
"XXX XXXXXX XXX XX XXXX XXXXXX XXXXX X XXXXXX XXXXX XXXX XXXXXX XXXXXX  XXXXX XXX",
"XXX XXXXXX XXXXXX XXXX XXXXXX XXXXX X XXXXXX XXXXX XXXX XXX... ...... ...... ...",
"... ...... ...... .... ......  .... . ...... ....  .... ...                     ",
"                                                            oooooooooooo ooooooo",
" oooooo oooooo oooo ooooo oooooo oooooooo ooooo oooo oooooo XXXXXXXXXXXX XXXXXXX",
" XXXXXX XXXXXX XXXX XXXXX XXXXXX XXXXXXXX XXXXX XXXX XXXXXX XXXXXXXXXXXX XXXXXXX",
"  XXXXX XXXXXX XXXX XXXXX XXXXXX  XXXXXXX XXXXX X XX XXXXXX ............ .......",
" ...... ...... .... ..... ...... ........ ..... .... ......                     ",
"                                                           ooo oooooo oooooo ooo",
"XXXX XXXX XXXXXX XXXXXX XXXXX  XXXXX XXXXXX XXX XX XXXX XXXXX XXXXXX XXXXX X XXX",
"XXXX XXXX XXXX X XXXXXX XXXXX  XXXXX XXXXXX XXXXXX XXXX XXXXX XXXXXX XXXXX X XXX",
".... .... .....  ...... .....   .... ...... ...... .... ..... ......  .... . ...",
"                                                                                ",
"o ooooo oooo oooooo oooooo oooooo oooooo oooooo oooo ooooo ooooo oooooo oooooooo",
"X XXXXX XXXX XXXXXX XXXXXX XXXXXX XXXXXX XXXXXX XXXX XXXXX XXXXX XXXXXX XXXXXXXX",
"X XXXXX XXXX XXXXXX XXXXXX XXXXXX  XXXXX XXXXXX XXXX XXXXX XXXXX XXXXXX  XXXXXXX",
". ..... .... ...... ...... ...... ...... ...... .... ..... ..... ...... ........",
"                                                                                ",
"oooo oooo ooooo ooooooo oooooooooooo ooooooo ooooo oooo oooXXX XXXXX  XXXXX XXXX",
"XXXX XXXX XXXXXX XXXXXX XXXXX  XXXXX XXXXXX XXX XX XXXX XXXXXX XXXXX  XXXXX XXXX",
"XXXX XXXX XXXX X XXXXXX XXXXX  XXXXX XXXXXX XXXXXX XXXX XXX... .....   .... ....",
".... .... .....  ...... .....   .... ...... ...... .... ...                     ",
"                                                           oooooo oooooo oooooo ",
"o ooooo oooo oooooo oooooo oooooo oooooo oooooo oooo ooooo XXXXXX XXXXXX XXXXXX ",
"X XXXXX XXXX XXXXXX XXXXXX XXXXXX XXXXXX XXXXXX XXXX XXXXX XXXXXX XXXXXX  XXXXX ",
"X XXXXX XXXX XXXXXX XXXXXX XXXXXX  XXXXX XXXXXX XXXX XXXXX ...... ...... ...... ",
". ..... .... ...... ...... ...... ...... ...... .... .....                      ",
"                                                           ooo oooooooooooo oooo",
"oooo oooo ooooo ooooooo oooooooooooo ooooooo ooooo oooo oooXXX XXXXX  XXXXX XXXX",
"XXXX XXXX XXXXX XXXXXXX XXXXXXXXXXXX XXXXXXX XXXXX XXXX XXXXXX XXXXX  XXXXX XXXX",
"XXXX XXXX  X  X XX  XXX XXXXXXXXXXXX XXXXXXX XXXXX X XX XXX... .....   .... ....",
".... .... ..    .... .. ............ ....... ..... .... ...                     ",
"                                                           oooooo oooooo oooooo ",
"o oooo ooooo oooooo oooooo oooooo oooooo oooooo ooooo oooo oooooo oooooo oooooo ",
" XXXXX XXXXXX XXX XX XXXX XXXXXX XXXXX X XXXXXX XXXXX XXXX XXXXXX XXXXXX XXXXXX ",
" XXXXX XXXXXX XXXXXX XXXX XXXXXX XXXXX X XXXXXX XXXXX XXXX XXXXXX XXXXXX XXXXXX ",
"  .... ...... ...... .... ......  .... . ...... ....  .... ...... ...... ...... ",
"                                                                                ",
"ooo oooooo oooooo oooo ooooo oooooo oooooooo ooooo oooo oooooo ooooo ooooooo oo ",
"XXX XXXXXX XXXXXX XXXX XXXXX XXXXXX XXXXXXXX XXXXX XXXX XXXXXX XXXXX XXXXXXX XX ",
"XXX  XXXXX XXXXXX XXXX XXXXX XXXXXX  XXXXXXX XXXXX X XX XXXXXX XXXXX XXXXXXX XX "
};
